<?xml version="1.0" encoding="UTF-8"?>
<svg width="329px" height="345px" viewBox="0 0 329 345" version="1.1" xmlns="http://www.w3.org/2000/svg" xmlns:xlink="http://www.w3.org/1999/xlink">
    <title>B</title>
    <defs></defs>
    <g  stroke="none" stroke-width="1" fill="none" fill-rule="evenodd">
        <g  transform="translate(-876.000000, -18879.000000)" fill="#601CDA">
            <path d="M1047.723,19223.99 C999.258755,19223.99 958.561829,19208.0685 925.630998,19176.225 C892.700166,19144.3815 876.234998,19103.1409 876.234998,19052.502 C876.234998,19002.1737 892.855498,18960.7778 926.096998,18928.313 C959.338497,18895.8482 999.569428,18879.616 1046.791,18879.616 C1070.40178,18879.616 1091.7599,18883.111 1110.866,18890.101 C1129.97209,18897.091 1145.42761,18906.3333 1157.233,18917.828 C1169.03839,18929.3227 1178.51363,18941.1279 1185.659,18953.244 C1192.80437,18965.3601 1197.77498,18977.9419 1200.571,18990.99 L1131.137,19012.892 C1129.58366,19006.368 1127.09835,18999.9217 1123.681,18993.553 C1120.26365,18987.1843 1115.44836,18980.6604 1109.235,18973.981 C1103.02163,18967.3016 1094.47839,18961.865 1083.605,18957.671 C1072.73161,18953.477 1060.4604,18951.38 1046.791,18951.38 C1021.93754,18951.38 1000.03576,18960.1562 981.084998,18977.709 C962.134236,18995.2618 952.658998,19020.1925 952.658998,19052.502 C952.658998,19082.3261 961.978904,19106.0919 980.618998,19123.8 C999.259091,19141.5081 1021.62687,19150.362 1047.723,19150.362 C1073.19779,19150.362 1092.92493,19143.9934 1106.905,19131.256 C1120.88507,19118.5186 1130.04964,19104.2281 1134.399,19088.384 L1204.765,19108.422 C1201.65832,19121.1594 1196.61003,19133.7413 1189.62,19146.168 C1182.62996,19158.5947 1173.15472,19170.8659 1161.194,19182.982 C1149.23327,19195.0981 1133.38943,19204.9616 1113.662,19212.573 C1093.93457,19220.1844 1071.95512,19223.99 1047.723,19223.99 Z" id="B"></path>
        </g>
    </g>
</svg>