<?xml version="1.0" standalone="no"?>
<!DOCTYPE svg PUBLIC "-//W3C//DTD SVG 1.1//EN" "http://www.w3.org/Graphics/SVG/1.1/DTD/svg11.dtd" >
<svg xmlns="http://www.w3.org/2000/svg">
<metadata>Generated by IcoMoon</metadata>
<defs>
<font id="iconofont" horiz-adv-x="1024">
<font-face units-per-em="1024" ascent="960" descent="-64" />
<missing-glyph horiz-adv-x="1024" />
<glyph unicode="&#x20;" horiz-adv-x="512" d="" />
<glyph unicode="&#xe900;" glyph-name="arrow_up_right" d="M1019.346 927.418c-4.655 9.309-18.619 23.272-27.927 27.927s-18.619 4.655-23.272 4.655h-740.072c-32.582 0-55.855-23.272-55.855-55.855s23.272-55.855 55.855-55.855h605.091l-814.545-814.545c-23.272-23.272-23.272-55.855 0-79.127 9.309-13.964 23.272-18.619 37.236-18.619s27.927 4.655 41.891 18.619l814.545 809.891v-605.091c0-32.582 23.272-55.855 55.855-55.855s55.855 23.272 55.855 55.855v744.727c0 4.655 0 13.964-4.655 23.272z" />
<glyph unicode="&#xe901;" glyph-name="bar_chart" d="M144.485 959.729c-65.129-4.652-120.954-69.781-120.954-134.91v-753.637c0-65.129 51.173-130.259 116.302-134.91 74.434-4.652 139.562 51.173 139.562 125.606v772.246c0 74.434-60.477 130.259-134.91 125.606zM177.050 61.878c0-13.956-9.304-27.912-27.912-27.912-13.956 0-27.912 9.304-27.912 27.912v772.246c0 13.956 9.304 27.912 27.912 27.912 13.956 0 27.912-9.304 27.912-27.912v-772.246zM502.696 703.865c-65.129-4.652-120.954-69.781-120.954-134.91v-497.772c0-65.129 51.173-130.259 116.302-134.91 74.434-4.652 139.562 51.173 139.562 125.606v511.729c4.652 79.085-60.477 134.91-134.91 130.259zM539.912 61.878c0-13.956-9.304-27.912-27.912-27.912s-27.912 9.304-27.912 27.912v511.729c0 13.956 9.304 27.912 27.912 27.912s27.912-9.304 27.912-27.912v-511.729zM860.906 499.173c-65.129-4.652-116.302-69.781-116.302-134.91v-293.081c0-65.129 51.173-130.259 116.302-134.91 74.434-4.652 139.562 51.173 139.562 125.606v307.037c0 79.085-65.129 134.91-139.562 130.259zM898.122 61.878c0-13.956-9.304-27.912-27.912-27.912-13.956 0-27.912 9.304-27.912 27.912v307.037c0 13.956 9.304 27.912 27.912 27.912 13.956 0 27.912-9.304 27.912-27.912v-307.037z" />
<glyph unicode="&#xe902;" glyph-name="bookmark" d="M716.8 960h-409.601c-111.709 0-204.8-93.091-204.8-204.8v-768c0-4.655 0-9.309 0-9.309 4.655-13.964 13.964-23.272 23.272-27.927 13.964-13.964 32.582-13.964 46.546-9.309l339.782 144.291 339.782-144.291c4.655-4.655 13.964-4.655 18.619-4.655 9.309 0 18.619 4.655 23.272 9.309 13.964 9.309 23.272 27.927 23.272 41.891v768c4.655 111.709-88.437 204.8-200.146 204.8zM819.2 66.327l-288.582 121.018c-4.655 4.655-13.964 4.655-18.619 4.655s-13.964 0-18.619-4.655l-288.582-121.018v688.874c0 55.855 46.546 102.4 102.4 102.4h409.601c55.855 0 102.4-46.546 102.4-102.4v-688.874z" />
<glyph unicode="&#xe903;" glyph-name="calendar" d="M819.2 908.8h-51.2c0 5.12 0 5.12 0 10.24-5.12 20.48-20.48 35.84-40.96 40.96-5.12 0-5.12 0-10.24 0s-5.12 0-10.24 0c-20.48-5.12-35.84-20.48-40.96-40.96 0-5.12 0-5.12 0-10.24h-307.2c0 5.12 0 5.12 0 10.24-5.12 20.48-20.48 35.84-40.96 40.96-5.12 0-5.12 0-10.24 0s-5.12 0-10.24 0c-20.48-5.12-35.84-20.48-40.96-40.96 0-5.12 0-5.12 0-10.24h-51.2c-112.64 0-204.8-92.16-204.8-204.8v-563.199c0-112.64 92.16-204.8 204.8-204.8h614.4c112.64 0 204.8 92.16 204.8 204.8v563.199c0 112.64-92.16 204.8-204.8 204.8zM921.599 140.8c0-56.32-46.080-102.4-102.4-102.4h-614.4c-56.32 0-102.4 46.080-102.4 102.4v409.599h819.2v-409.599zM921.599 652.8h-819.2v51.2c0 56.32 46.080 102.4 102.4 102.4h51.2c0-5.12 0-5.12 0-10.24 5.12-20.48 20.48-35.84 40.96-40.96 5.12 0 5.12 0 10.24 0s5.12 0 10.24 0c20.48 5.12 35.84 20.48 40.96 40.96 0 5.12 0 5.12 0 10.24h307.2c0-5.12 0-5.12 0-10.24 5.12-20.48 20.48-35.84 40.96-40.96 5.12 0 5.12 0 10.24 0s5.12 0 10.24 0c20.48 5.12 35.84 20.48 40.96 40.96 0 5.12 0 5.12 0 10.24h51.2c56.32 0 102.4-46.080 102.4-102.4v-51.2zM358.4 396.8c0-28.277-22.924-51.2-51.2-51.2s-51.2 22.924-51.2 51.2c0 28.277 22.924 51.2 51.2 51.2s51.2-22.924 51.2-51.2zM563.2 396.8c0-28.277-22.924-51.2-51.2-51.2s-51.2 22.924-51.2 51.2c0 28.277 22.924 51.2 51.2 51.2s51.2-22.924 51.2-51.2zM767.999 396.8c0-28.277-22.924-51.2-51.2-51.2s-51.2 22.924-51.2 51.2c0 28.277 22.924 51.2 51.2 51.2s51.2-22.924 51.2-51.2zM358.4 192.001c0-28.277-22.924-51.2-51.2-51.2s-51.2 22.924-51.2 51.2c0 28.277 22.924 51.2 51.2 51.2s51.2-22.924 51.2-51.2zM563.2 192.001c0-28.277-22.924-51.2-51.2-51.2s-51.2 22.924-51.2 51.2c0 28.277 22.924 51.2 51.2 51.2s51.2-22.924 51.2-51.2zM767.999 192.001c0-28.277-22.924-51.2-51.2-51.2s-51.2 22.924-51.2 51.2c0 28.277 22.924 51.2 51.2 51.2s51.2-22.924 51.2-51.2z" />
<glyph unicode="&#xe904;" glyph-name="chart_combo" d="M269.963 275.781c4.655-4.655 13.964-4.655 23.272-4.655 0 0 4.655 0 4.655 0s0 0 0 0c13.964 0 32.582 4.655 41.891 18.619l153.6 209.455 167.564-130.328c9.309-9.309 18.619-9.309 37.236-9.309 13.964 0 27.927 9.309 37.236 18.619l186.182 256.001c13.964 18.619 9.309 55.855-9.309 69.818s-55.855 9.309-69.818-9.309l-158.255-209.455-172.219 125.673c-9.309 9.309-18.619 9.309-37.236 9.309s-23.272-9.309-37.236-18.619l-190.836-251.346c-13.964-18.619-9.309-55.855 9.309-69.818 9.309-4.655 9.309-4.655 13.964-4.655zM972.8 38.399h-768c-55.855 0-102.4 46.546-102.4 102.4v768c0 32.582-18.619 51.2-51.2 51.2s-51.2-18.619-51.2-51.2v-768c0-111.709 93.091-204.8 204.8-204.8h768c32.582 0 51.2 18.619 51.2 51.2s-18.619 51.2-51.2 51.2z" />
<glyph unicode="&#xe905;" glyph-name="check" d="M1007.329 803.142c-23.364 23.364-60.748 23.364-79.439 0l-588.787-588.787-242.992 242.992c-23.364 23.364-60.748 23.364-79.439 0s-23.364-60.748 0-79.439l285.048-285.048c9.345-9.345 28.037-18.692 42.056-18.692s28.037 4.673 42.056 18.692l621.498 630.843c23.364 18.692 23.364 56.075 0 79.439z" />
<glyph unicode="&#xe906;" glyph-name="circle_check" d="M712.146 601.6c-4.655 9.309-9.309 13.964-13.964 18.619-13.964 9.309-32.582 13.964-46.546 9.309-4.655 0-4.655 0-9.309-4.655-4.655 0-4.655-4.655-9.309-4.655-4.655-4.655-4.655-4.655-9.309-9.309l-158.255-232.727-69.818 69.818c-18.619 18.619-51.2 18.619-69.818 0s-18.619-51.2 0-69.818v-4.655l107.054-111.709c9.309-9.309 18.619-13.964 27.927-13.964 4.655 0 4.655 0 9.309 0h9.309c13.964 0 27.927 9.309 37.236 18.619l195.491 283.928c9.309 13.964 9.309 37.236 0 51.2 0 0 0 0 0 0zM512 960c-283.928 0-512-228.073-512-512s228.073-512 512-512 512 232.727 512 512-232.727 512-512 512zM512 38.399c-223.418 0-409.601 186.182-409.601 409.601s186.182 409.601 409.601 409.601 409.601-186.182 409.601-409.601c0-223.418-186.182-409.601-409.601-409.601z" />
<glyph unicode="&#xe907;" glyph-name="circle_play" d="M721.455 475.927c-4.655 18.619-9.309 32.582-18.619 46.546-4.655 4.655-13.964 13.964-18.619 18.619l-190.836 107.054c-37.236 18.619-69.818 18.619-107.054 0s-51.2-55.855-51.2-93.091v-214.11c0-41.891 18.619-69.818 51.2-93.091 13.964-9.309 37.236-13.964 51.2-13.964 4.655 0 9.309 0 13.964 0 9.309 0 18.619 4.655 27.927 9.309 4.655 0 9.309 4.655 13.964 4.655l186.182 107.054c4.655 4.655 9.309 4.655 13.964 9.309s9.309 4.655 9.309 9.309 9.309 9.309 9.309 13.964c9.309 13.964 13.964 27.927 18.619 46.546 0 4.655 0 9.309 0 13.964s0 13.964 0 18.619c-9.309 0-9.309 4.655-9.309 9.309zM642.328 443.345l-200.146-116.364-4.655 4.655v232.727l4.655 4.655 200.146-116.364v-9.309zM512 960c-283.928 0-512-228.073-512-512s228.073-512 512-512 512 232.727 512 512-232.727 512-512 512zM512 38.399c-223.418 0-409.601 186.182-409.601 409.601s186.182 409.601 409.601 409.601 409.601-186.182 409.601-409.601c0-223.418-186.182-409.601-409.601-409.601z" />
<glyph unicode="&#xe908;" glyph-name="comment_bubble" d="M726.109 499.2c-4.655 0-4.655 0-9.309 0h-409.6c-4.655 0-4.655 0-9.309 0-23.272-4.655-37.236-18.619-41.891-41.891 0-4.655 0-4.655 0-9.309s0-4.655 0-9.309c4.655-23.272 18.619-37.236 41.891-41.891 4.655 0 4.655 0 9.309 0h409.6c4.655 0 4.655 0 9.309 0 23.272 4.655 37.236 18.619 41.891 41.891 0 4.655 0 4.655 0 9.309s0 4.655 0 9.309c-4.655 23.272-18.619 37.236-41.891 41.891zM726.109 704c-4.655 0-4.655 0-9.309 0h-409.6c-4.655 0-4.655 0-9.309 0-23.272-4.655-37.236-18.619-41.891-41.891 0-4.655 0-4.655 0-9.309s0-4.655 0-9.309c4.655-23.272 18.619-37.236 41.891-41.891 4.655 0 4.655 0 9.309 0h409.6c4.655 0 4.655 0 9.309 0 23.272 4.655 37.236 18.619 41.891 41.891 0 4.655 0 4.655 0 9.309s0 4.655 0 9.309c-4.655 23.272-18.619 37.236-41.891 41.891zM819.2 959.999h-614.399c-111.709 0-204.799-93.090-204.799-204.799v-767.999c0-18.619 9.309-37.236 32.582-46.546 0 0 4.655-4.655 4.655-4.655s4.655 0 4.655 0 4.655 0 9.309 0 9.309 0 13.964 4.655c4.655 0 13.964 4.655 18.619 9.309l242.036 190.836h493.381c111.709 0 204.799 93.090 204.799 204.799v409.6c0 111.709-93.090 204.799-204.799 204.799zM921.6 345.6c0-55.854-46.546-102.4-102.4-102.4h-511.999c-4.655 0-4.655 0-9.309 0-9.309 0-18.619-4.655-23.272-9.309l-172.218-139.636v660.945c0 55.854 46.546 102.4 102.4 102.4h614.399c55.854 0 102.4-46.546 102.4-102.4v-409.6z" />
<glyph unicode="&#xe909;" glyph-name="comment_bubble_add" d="M674.908 601.6c-4.655 0-4.655 0-9.309 0h-102.4v102.4c0 4.655 0 4.655 0 9.309-4.655 23.272-18.619 37.236-41.891 41.891-4.655 0-4.655 0-9.309 0s-4.655 0-9.309 0c-23.272-4.655-37.236-18.619-41.891-41.891 0-4.655 0-4.655 0-9.309v-102.4h-102.4c-4.655 0-4.655 0-9.309 0-23.272-4.655-37.236-18.619-41.891-41.891 0-4.655 0-4.655 0-9.309s0-4.655 0-9.309c4.655-23.272 18.619-37.236 41.891-41.891 4.655 0 4.655 0 9.309 0h102.4v-102.4c0-4.655 0-4.655 0-9.309 4.655-23.272 18.619-37.236 41.891-41.891 4.655 0 4.655 0 9.309 0s4.655 0 9.309 0c23.272 4.655 37.236 18.619 41.891 41.891 0 4.655 0 4.655 0 9.309v102.4h102.4c4.655 0 4.655 0 9.309 0 23.272 4.655 37.236 18.619 41.891 41.891 0 4.655 0 4.655 0 9.309s0 4.655 0 9.309c-4.655 23.272-18.619 37.236-41.891 41.891zM819.2 959.999h-614.399c-111.709 0-204.799-93.090-204.799-204.799v-767.999c0-18.619 9.309-37.236 32.582-46.546 0 0 4.655-4.655 4.655-4.655s4.655 0 4.655 0 4.655 0 9.309 0 9.309 0 13.964 4.655c4.655 0 13.964 4.655 18.619 9.309l242.036 190.836h493.381c111.709 0 204.799 93.090 204.799 204.799v409.6c0 111.709-93.090 204.799-204.799 204.799zM921.6 345.6c0-55.854-46.546-102.4-102.4-102.4h-511.999c-4.655 0-4.655 0-9.309 0-9.309 0-18.619-4.655-23.272-9.309l-172.218-139.636v660.945c0 55.854 46.546 102.4 102.4 102.4h614.399c55.854 0 102.4-46.546 102.4-102.4v-409.6z" />
<glyph unicode="&#xe90a;" glyph-name="compare" d="M49.096 499.433v201.060c0 23.379 14.027 42.082 32.731 51.433 14.027 9.351 37.406 9.351 56.11 0l154.301-102.868c14.027-9.351 28.055-28.055 28.055-46.758s-9.351-37.406-28.055-46.758l-154.301-102.868c-9.351-4.676-18.704-9.351-32.731-9.351-9.351 0-18.704 0-28.055 4.676-18.704 9.351-28.055 28.055-28.055 51.433zM918.795 50.557h-252.493c-51.433 0-93.516 42.082-93.516 93.516v303.927c0 51.433 42.082 93.516 93.516 93.516h252.493c32.731 0 56.11 28.055 56.11 56.11s-28.055 56.11-56.11 56.11h-252.493c-32.731 0-65.461-9.351-93.516-23.379v121.57c0 116.895-93.516 210.411-210.411 210.411h-257.169c-32.731 0-56.11-28.055-56.11-56.11s28.055-56.11 56.11-56.11h252.493c51.433 0 93.516-42.082 93.516-93.516v-308.603c0-51.433-42.082-93.516-93.516-93.516h-252.493c-32.731 0-56.11-28.055-56.11-56.11 0-32.731 28.055-56.11 56.11-56.11h252.493c32.731 0 65.461 9.351 93.516 23.379v-116.895c0-116.895 93.516-210.411 210.411-210.411h252.493c32.731 0 56.11 28.055 56.11 56.11s-18.704 56.11-51.433 56.11zM946.849 448c-18.704 9.351-42.082 9.351-60.786-4.676l-154.301-102.868c-14.027-9.351-28.055-28.055-28.055-46.758s9.351-37.406 28.055-46.758l154.301-102.868c9.351-4.676 18.704-9.351 32.731-9.351 9.351 0 18.704 0 28.055 4.676 18.704 9.351 32.731 28.055 32.731 51.433v201.060c-4.676 28.055-14.027 46.758-32.731 56.11z" />
<glyph unicode="&#xe90b;" glyph-name="conversation" d="M819.2 934.4h-614.4c-110.933 0-204.8-93.867-204.8-204.8v-409.6c0-110.933 93.867-204.8 204.8-204.8h140.8l128-136.533c8.533-8.533 21.333-17.067 38.4-17.067s29.867 4.267 38.4 17.067l128 136.533h140.8c110.933 0 204.8 93.867 204.8 204.8v409.6c0 110.933-93.867 204.8-204.8 204.8zM921.6 320c0-55.467-46.933-102.4-102.4-102.4h-162.133c-12.8 0-29.867-4.267-38.4-17.067l-106.667-115.2-106.667 115.2c-8.533 8.533-21.333 17.067-38.4 17.067h-162.133c-55.467 0-102.4 46.933-102.4 102.4v409.6c0 55.467 46.933 102.4 102.4 102.4h614.4c55.467 0 102.4-46.933 102.4-102.4v-409.6zM341.333 563.2c-12.8 12.8-34.133 17.067-55.467 8.533-4.267-4.267-8.533-4.267-17.067-8.533-8.533-12.8-12.8-25.6-12.8-38.4 0-8.533 0-12.8 4.267-21.333 4.267-4.267 4.267-12.8 8.533-17.067 8.533-8.533 21.333-12.8 38.4-12.8s25.6 4.267 34.133 17.067c8.533 8.533 17.067 21.333 17.067 34.133 0 8.533 0 12.8-4.267 21.333s-4.267 8.533-12.8 17.067zM546.133 563.2c-12.8 12.8-34.133 17.067-55.467 8.533-4.267-4.267-12.8-4.267-17.067-8.533-8.533-8.533-17.067-21.333-17.067-38.4 0-8.533 0-12.8 4.267-21.333 4.267-4.267 4.267-12.8 8.533-17.067 8.533-8.533 21.333-12.8 34.133-12.8s25.6 4.267 34.133 12.8c8.533 8.533 17.067 21.333 17.067 34.133 0 8.533 0 12.8-4.267 21.333s4.267 12.8-4.267 21.333zM755.2 563.2c-12.8 12.8-38.4 17.067-55.467 8.533-4.267-4.267-12.8-4.267-17.067-8.533-8.533-8.533-17.067-21.333-17.067-38.4 0-8.533 0-12.8 4.267-21.333 4.267-4.267 4.267-12.8 8.533-17.067 8.533-8.533 21.333-12.8 34.133-12.8 8.533 0 12.8 0 21.333 4.267 4.267 4.267 12.8 4.267 17.067 8.533 8.533 8.533 12.8 21.333 12.8 34.133 0 8.533 0 12.8-4.267 21.333s0 12.8-4.267 21.333z" />
<glyph unicode="&#xe90c;" d="M819.2 166.4h-162.133l-145.067-153.6-145.067 153.6h-162.133c-85.333 0-153.6 68.267-153.6 153.6v409.6c0 85.333 68.267 153.6 153.6 153.6h614.4c85.333 0 153.6-68.267 153.6-153.6v-409.6c0-85.333-68.267-153.6-153.6-153.6z" />
<glyph unicode="&#xe90d;" d="M921.6 320c0-55.467-46.933-102.4-102.4-102.4h-162.133c-12.8 0-25.6-4.267-38.4-17.067l-106.667-115.2-106.667 115.2c-8.533 8.533-21.333 17.067-38.4 17.067h-162.133c-55.467 0-102.4 46.933-102.4 102.4v409.6c0 55.467 46.933 102.4 102.4 102.4h614.4c55.467 0 102.4-46.933 102.4-102.4v-409.6zM819.2 934.4h-614.4c-110.933 0-204.8-93.867-204.8-204.8v-409.6c0-110.933 93.867-204.8 204.8-204.8h140.8l128-136.533c8.533-8.533 21.333-17.067 38.4-17.067 12.8 0 25.6 4.267 38.4 17.067l128 136.533h140.8c110.933 0 204.8 93.867 204.8 204.8v409.6c0 110.933-93.867 204.8-204.8 204.8z" />
<glyph unicode="&#xe90e;" d="M345.6 563.2c-17.067 12.8-38.4 17.067-59.733 8.533-4.267-4.267-8.533-4.267-17.067-8.533-8.533-12.8-12.8-25.6-12.8-38.4 0-8.533 0-12.8 4.267-21.333 4.267-4.267 4.267-12.8 12.8-17.067 8.533-8.533 21.333-12.8 38.4-12.8 12.8 0 25.6 4.267 38.4 12.8 8.533 8.533 12.8 21.333 12.8 38.4 0 8.533 0 12.8-4.267 21.333-8.533 4.267-8.533 8.533-12.8 17.067z" />
<glyph unicode="&#xe90f;" d="M550.4 563.2c-17.067 12.8-38.4 17.067-59.733 8.533-8.533-4.267-12.8-4.267-17.067-12.8-8.533-8.533-12.8-21.333-12.8-38.4 0-8.533 0-12.8 4.267-21.333 4.267-4.267 4.267-12.8 12.8-17.067 8.533-8.533 21.333-12.8 38.4-12.8 12.8 0 25.6 4.267 38.4 12.8 8.533 8.533 12.8 21.333 12.8 38.4 0 8.533 0 12.8-4.267 21.333-8.533 8.533-8.533 12.8-12.8 21.333z" />
<glyph unicode="&#xe910;" d="M755.2 563.2c-12.8 12.8-38.4 17.067-55.467 12.8-4.267-4.267-12.8-4.267-17.067-12.8-8.533-8.533-12.8-21.333-12.8-38.4 0-8.533 0-12.8 4.267-21.333s4.267-12.8 12.8-17.067 21.333-12.8 38.4-12.8c8.533 0 12.8 0 21.333 4.267 4.267 4.267 12.8 4.267 17.067 12.8 8.533 8.533 12.8 21.333 12.8 38.4 0 8.533 0 12.8-4.267 21.333-12.8 0-12.8 4.267-17.067 12.8z" />
<glyph unicode="&#xe911;" glyph-name="crop" d="M204.8 38.399h-102.4v102.4c0 32.582-18.619 51.2-51.2 51.2s-51.2-18.619-51.2-51.2v-153.6c0-27.927 23.272-51.2 51.2-51.2h153.6c32.582 0 51.2 18.619 51.2 51.2s-18.619 51.2-51.2 51.2zM563.2 38.399h-102.4c-32.582 0-51.2-18.619-51.2-51.2s18.619-51.2 51.2-51.2h102.4c32.582 0 51.2 18.619 51.2 51.2s-18.619 51.2-51.2 51.2zM51.2 373.527c32.582 0 51.2 18.619 51.2 51.2v102.4c0 32.582-18.619 51.2-51.2 51.2s-51.2-23.272-51.2-55.855v-102.4c0-27.927 18.619-46.546 51.2-46.546zM204.8 960h-153.6c-27.927 0-51.2-23.272-51.2-51.2v-153.6c0-32.582 18.619-51.2 51.2-51.2s51.2 18.619 51.2 51.2v102.4h102.4c32.582 0 51.2 18.619 51.2 51.2s-18.619 51.2-51.2 51.2zM972.8 578.328c-32.582 0-51.2-18.619-51.2-51.2v-102.4c0-32.582 18.619-51.2 51.2-51.2s51.2 18.619 51.2 51.2v102.4c0 27.927-18.619 51.2-51.2 51.2zM563.2 960h-102.4c-32.582 0-51.2-18.619-51.2-51.2s18.619-51.2 51.2-51.2h102.4c32.582 0 51.2 18.619 51.2 51.2s-18.619 51.2-51.2 51.2zM972.8 960h-153.6c-32.582 0-51.2-18.619-51.2-51.2s18.619-51.2 51.2-51.2h102.4v-102.4c0-32.582 18.619-51.2 51.2-51.2s51.2 18.619 51.2 51.2v153.6c0 27.927-23.272 51.2-51.2 51.2zM972.8 191.999c-32.582 0-51.2-18.619-51.2-51.2v-102.4h-102.4c-32.582 0-51.2-18.619-51.2-51.2s18.619-51.2 51.2-51.2h153.6c27.927 0 51.2 23.272 51.2 51.2v153.6c0 32.582-18.619 51.2-51.2 51.2z" />
<glyph unicode="&#xe912;" glyph-name="delete" d="M605.091 168.727c4.655 0 4.655 0 9.309 0s4.655 0 9.309 0c23.272 4.655 37.236 18.619 41.891 41.891 0 4.655 0 4.655 0 9.309v307.2c0 4.655 0 4.655 0 9.309-4.655 23.272-18.619 37.236-41.891 41.891-4.655 0-4.655 0-9.309 0s-4.655 0-9.309 0c-23.272-4.655-37.236-18.619-41.891-41.891 0-4.655 0-4.655 0-9.309v-311.855c0-4.655 0-4.655 0-9.309 4.655-18.619 18.619-37.236 41.891-37.236zM400.291 168.727c4.655 0 4.655 0 9.309 0s4.655 0 9.309 0c23.272 4.655 37.236 18.619 41.891 41.891 0 4.655 0 4.655 0 9.309v307.2c0 4.655 0 4.655 0 9.309-4.655 23.272-18.619 37.236-41.891 41.891-4.655 0-4.655 0-9.309 0s-4.655 0-9.309 0c-23.272-4.655-37.236-18.619-41.891-41.891 0-4.655 0-4.655 0-9.309v-311.855c0-4.655 0-4.655 0-9.309 4.655-18.619 18.619-37.236 41.891-37.236zM972.8 713.309c-4.655 23.272-18.619 37.236-41.891 41.891-4.655 0-4.655 0-9.309 0h-204.8v102.4c0 55.855-46.546 102.4-102.4 102.4h-204.8c-55.855 0-102.4-46.546-102.4-102.4v-102.4h-204.8c-4.655 0-4.655 0-9.309 0-23.272-4.655-37.236-18.619-41.891-41.891 0-4.655 0-4.655 0-9.309s0-4.655 0-9.309c4.655-23.272 18.619-37.236 41.891-41.891 4.655 0 4.655 0 9.309 0h51.2v-563.2c0-83.782 69.818-153.6 153.6-153.6h409.6c83.782 0 153.6 69.818 153.6 153.6v563.2h51.2c4.655 0 4.655 0 9.309 0 23.272 4.655 37.236 18.619 41.891 41.891 0 4.655 0 4.655 0 9.309s0 4.655 0 9.309zM409.6 857.6h204.8v-102.4h-204.8v102.4zM768 89.601c0-27.927-23.272-51.2-51.2-51.2h-409.6c-27.927 0-51.2 23.272-51.2 51.2v563.2h511.999v-563.2z" />
<glyph unicode="&#xe913;" glyph-name="direction_click" d="M968.145 210.618c-9.309 60.509-60.509 116.364-134.981 158.255-27.927 9.309-55.854 4.655-69.818-18.619s-9.309-46.546 9.309-65.163c4.655-4.655 9.309-9.309 13.964-13.964 23.272-13.964 46.546-32.582 60.509-46.546 0 0 4.655-4.655 4.655-4.655 9.309-13.964 13.964-23.272 13.964-37.236 0-69.818-153.6-148.945-358.399-148.945-153.6 0-274.617 41.891-330.472 93.090-4.655 4.655-4.655 4.655-9.309 9.309-9.309 13.964-13.964 27.927-13.964 41.891 0 32.582 32.582 65.163 83.782 93.090 13.964 9.309 23.272 18.619 23.272 32.582 0 0 0 0 0 0 0 4.655 0 4.655 0 9.309v4.655c0 4.655 0 9.309 0 9.309 0 4.655-4.655 9.309-4.655 13.964s-4.655 9.309-9.309 13.964c0 0-4.655 4.655-4.655 4.655-4.655 4.655-9.309 4.655-13.964 9.309s-9.309 4.655-13.964 4.655c0 0-4.655 0-4.655 0-9.309 0-18.619 0-27.927-9.309-46.546-27.927-88.437-60.509-111.709-102.4-13.964-23.272-18.619-51.2-18.619-74.473 0-144.291 200.146-251.345 460.799-251.345s460.799 107.054 460.799 251.345c0 9.309 0 18.619-4.655 23.272zM460.8 452.655v-209.454c0-4.655 0-4.655 0-9.309 4.655-23.272 18.619-37.236 41.891-41.891 4.655 0 4.655 0 9.309 0s4.655 0 9.309 0c23.272 4.655 37.236 18.619 41.891 41.891 0 4.655 0 4.655 0 9.309v209.454c116.364 23.272 204.799 130.327 204.799 251.345 0 144.291-111.709 256-256 256s-256-111.709-256-256c0-121.018 88.437-223.418 204.799-251.345zM512 857.6c88.437 0 153.6-65.163 153.6-153.6s-65.163-153.6-153.6-153.6-153.6 65.163-153.6 153.6 65.163 153.6 153.6 153.6zM512 731.927c0-28.277-22.923-51.2-51.2-51.2s-51.2 22.923-51.2 51.2c0 28.277 22.923 51.2 51.2 51.2s51.2-22.923 51.2-51.2z" />
<glyph unicode="&#xe914;" glyph-name="download" d="M972.8 350.254c-32.582 0-51.2-18.619-51.2-51.2v-153.6c0-55.855-46.546-102.4-102.4-102.4h-614.4c-55.855 0-102.4 46.546-102.4 102.4v153.6c0 32.582-18.619 51.2-51.2 51.2s-51.2-18.619-51.2-51.2v-153.6c0-111.709 93.091-204.8 204.8-204.8h614.4c111.709 0 204.8 93.091 204.8 204.8v153.6c0 32.582-18.619 51.2-51.2 51.2zM474.764 252.509c4.655-4.655 9.309-9.309 13.964-9.309 4.655-4.655 13.964-4.655 18.619-4.655s13.964 0 18.619 4.655c4.655 0 9.309 4.655 13.964 9.309l256.001 256.001c18.619 18.619 18.619 51.2 0 69.818s-51.2 18.619-69.818 0l-167.564-167.564v493.383c0 32.582-18.619 51.2-51.2 51.2s-51.2-18.619-51.2-51.2v-493.383l-162.909 172.219c-18.619 18.619-51.2 18.619-69.818 0s-18.619-51.2 0-69.818l251.346-260.654z" />
<glyph unicode="&#xe915;" glyph-name="edit" d="M940.92 876.92c-94.153 94.153-240.614 94.153-334.767 0l-460.305-460.305c-68-68-109.845-151.691-125.538-240.614l-31.384-188.306c-5.231-15.692 5.231-31.384 15.692-47.077 10.461-10.461 20.923-15.692 36.616-15.692h10.461l188.306 31.384c94.153 15.692 172.614 57.538 240.614 125.538l460.305 460.305c94.153 94.153 94.153 240.614 0 334.767zM407.386 155.080c-52.308-52.308-115.076-83.692-183.075-94.153l-120.306-20.923 20.923 120.306c10.461 68 41.845 130.769 94.153 183.075l292.92 292.92 188.306-188.306-292.92-292.92zM867.689 615.383l-94.153-94.153-188.306 188.306 94.153 94.153c26.153 26.153 57.538 36.616 94.153 36.616s68-15.692 94.153-36.616c26.153-26.153 36.616-57.538 36.616-94.153s-10.461-68-36.616-94.153z" />
<glyph unicode="&#xe916;" glyph-name="tap-left" d="M4.433 463.516c0 4.433 4.433 13.299 8.865 13.299l381.229 381.229c17.732 17.732 39.896 17.732 57.628 0s17.732-39.896 0-57.628l-310.303-310.303h842.251c22.164 0 39.896-17.732 39.896-39.896 0-13.299-4.433-22.164-13.299-31.031s-17.732-13.299-31.031-13.299h-842.251l310.303-310.303c17.732-17.732 17.732-39.896 0-57.628s-39.896-17.732-57.628 0l-381.229 381.229c-4.433 4.433-8.865 8.865-8.865 13.299 0 13.299 0 22.164 4.433 31.031z" />
<glyph unicode="&#xe917;" glyph-name="email" d="M819.2 908.8h-614.4c-111.709 0-204.8-93.091-204.8-204.8v-512c0-111.709 93.091-204.8 204.8-204.8h614.4c111.709 0 204.8 93.091 204.8 204.8v512c0 111.709-93.091 204.8-204.8 204.8zM921.601 191.999c0-55.855-46.546-102.4-102.4-102.4h-614.4c-55.855 0-102.4 46.546-102.4 102.4v372.364l381.673-214.11c9.309-4.655 13.964-4.655 27.927-4.655s13.964 0 27.927 4.655l381.673 214.11v-372.364zM921.601 685.382l-409.601-228.073-409.601 228.073v18.619c0 55.855 46.546 102.4 102.4 102.4h614.4c55.855 0 102.4-46.546 102.4-102.4v-18.619z" />
<glyph unicode="&#xe918;" glyph-name="email_click" d="M819.201 960.001h-614.401c-111.709 0-204.8-93.091-204.8-204.8v-460.801c0-111.709 93.091-204.8 204.8-204.8h553.892l-65.163-65.163c-18.619-18.619-18.619-51.2 0-69.818 9.309-9.309 23.272-13.964 37.236-13.964 9.309 0 23.272 4.655 37.236 13.964l153.6 153.6c18.619 18.619 18.619 51.2 0 69.818l-153.6 153.6c-18.619 18.619-51.2 18.619-69.818 0s-18.619-51.2 0-69.818l65.163-65.163h-558.546c-55.855 0-102.401 46.546-102.401 102.401v330.473l390.983-172.219c4.655-9.309 13.964-9.309 18.619-9.309s13.964 0 18.619 4.655l390.983 172.219v-218.764c0-32.582 18.619-51.2 51.2-51.2s51.2 18.619 51.2 51.2v349.092c0 111.709-93.091 204.8-204.8 204.8zM512 555.054l-409.601 186.183v13.964c0 55.855 46.546 102.401 102.401 102.401h614.401c55.855 0 102.401-46.546 102.401-102.401v-13.964l-409.601-186.183z" />
<glyph unicode="&#xe919;" glyph-name="emoticon" d="M726.11 550.4c-4.655 0-4.655 0-9.309 0h-102.4c-4.655 0-4.655 0-9.309 0-23.272-4.655-37.236-18.619-41.891-41.891 0-4.655 0-4.655 0-9.309s0-4.655 0-9.309c4.655-23.272 18.619-37.236 41.891-41.891 4.655 0 4.655 0 9.309 0h102.4c4.655 0 4.655 0 9.309 0 23.272 4.655 37.236 18.619 41.891 41.891 0 4.655 0 4.655 0 9.309s0 4.655 0 9.309c-4.655 23.272-18.619 37.236-41.891 41.891zM307.2 448h102.4c4.655 0 4.655 0 9.309 0 23.272 4.655 37.236 18.619 41.891 41.891 0 4.655 0 4.655 0 9.309s0 4.655 0 9.309c-4.655 23.272-18.619 37.236-41.891 41.891-4.655 0-4.655 0-9.309 0h-102.4c-4.655 0-4.655 0-9.309 0-23.272-4.655-37.236-18.619-41.891-41.891 0-4.655 0-4.655 0-9.309s0-4.655 0-9.309c4.655-23.272 18.619-37.236 41.891-41.891 4.655 0 4.655 0 9.309 0zM721.455 331.636c-4.655 4.655-9.309 4.655-13.964 9.309v0c-4.655 4.655-13.964 4.655-18.619 4.655h-4.655l-344.436-9.309c-18.619 0-37.236-9.309-46.546-27.927-9.309-13.964-9.309-37.236 0-51.2 27.927-37.236 60.509-69.818 97.746-88.437 23.272-13.964 46.546-18.619 69.818-23.272 4.655 0 13.964-4.655 23.272-4.655s23.272 0 32.582 0c93.091 0 172.219 51.2 218.763 130.328 9.309 13.964 9.309 37.236 0 51.2-4.655 0-9.309 4.655-13.964 9.309zM512 960c-283.928 0-512-228.073-512-512s228.073-512 512-512 512 232.727 512 512-232.727 512-512 512zM512 38.399c-223.418 0-409.601 186.182-409.601 409.601s186.182 409.601 409.601 409.601 409.601-186.182 409.601-409.601c0-223.418-186.182-409.601-409.601-409.601z" />
<glyph unicode="&#xe91a;" glyph-name="engagement_rate" d="M716.8 392.145c-4.655 4.655-13.964 4.655-18.619 4.655 4.655 0 13.964-4.655 18.619-4.655-18.619 9.309-41.891 9.309-55.855-4.655 0 0 0 0 0 0s-4.655 0-4.655-4.655c0 0 4.655 0 4.655 4.655-4.655-4.655-9.309-9.309-13.964-13.964-23.272-46.546-74.473-74.473-134.982-74.473-51.2 0-102.4 23.272-130.328 69.818-13.964 27.927-46.546 32.582-69.818 13.964-23.272-13.964-32.582-46.546-13.964-69.818 0 0 0 0 0 0s0 0 0 0 0 0 0 0c9.309-13.964 18.619-23.272 27.927-37.236 0 0 4.655-4.655 4.655-4.655 9.309-9.309 23.272-18.619 37.236-27.927 0 0 0 0 4.655 0 41.891-27.927 93.091-41.891 144.291-41.891 93.091 0 172.219 51.2 218.763 130.328 13.964 13.964 0 46.546-18.619 60.509zM339.781 517.818c0 0-4.655 0-4.655 0s0 0 4.655 0v0zM512 960c-283.928 0-512-228.073-512-512s228.073-512 512-512 512 232.727 512 512-232.727 512-512 512zM512 38.399c-223.418 0-409.601 186.182-409.601 409.601s186.182 409.601 409.601 409.601c223.418 0 409.601-186.182 409.601-409.601s-186.182-409.601-409.601-409.601zM390.982 569.018c0-28.277-22.923-51.2-51.2-51.2s-51.2 22.923-51.2 51.2c0 28.277 22.923 51.2 51.2 51.2s51.2-22.923 51.2-51.2zM698.182 569.018c0-28.277-22.923-51.2-51.2-51.2s-51.2 22.923-51.2 51.2c0 28.277 22.923 51.2 51.2 51.2s51.2-22.923 51.2-51.2z" />
<glyph unicode="&#xe91b;" glyph-name="engagement_rate_filled" d="M512 960c-283.928 0-512-228.073-512-512s228.073-512 512-512 512 232.727 512 512-232.727 512-512 512zM646.982 620.219c27.927 0 51.2-23.272 51.2-51.2s-23.272-51.2-51.2-51.2-51.2 23.272-51.2 51.2c0 27.927 23.272 51.2 51.2 51.2zM339.781 620.219c27.927 0 51.2-23.272 51.2-51.2s-23.272-51.2-51.2-51.2v0c0 0-4.655 0-4.655 0-27.927 4.655-46.546 23.272-46.546 51.2s23.272 51.2 51.2 51.2zM730.763 317.672c-46.546-74.473-130.328-130.328-218.763-130.328-9.309 0-23.272 0-32.582 0-4.655 0-13.964 0-18.619 4.655-65.163 13.964-125.673 55.855-162.909 111.709-13.964 27.927-9.309 55.855 13.964 69.818 27.927 13.964 55.855 9.309 69.818-13.964 27.927-46.546 74.473-69.818 130.328-69.818s107.054 32.582 134.982 79.127c4.655 4.655 4.655 9.309 9.309 9.309 18.619 13.964 41.891 18.619 60.509 9.309s32.582-41.891 13.964-69.818z" />
<glyph unicode="&#xe91c;" glyph-name="export" d="M572.509 205.963c-32.582 0-51.2-18.619-51.2-51.2v-13.964c0-55.855-46.546-102.4-102.4-102.4h-204.8c-55.855 0-102.4 46.546-102.4 102.4v614.4c0 55.855 46.546 102.4 102.4 102.4h204.8c55.855 0 102.4-46.546 102.4-102.4v-23.272c0-32.582 18.619-51.2 51.2-51.2s51.2 18.619 51.2 51.2v23.272c0 111.709-93.091 204.8-204.8 204.8h-204.8c-111.709 0-204.8-93.091-204.8-204.8v-614.4c0-111.709 93.091-204.8 204.8-204.8h204.8c111.709 0 204.8 93.091 204.8 204.8v13.964c0 32.582-18.619 51.2-51.2 51.2zM1010.036 466.619c0 4.655-4.655 9.309-9.309 13.964l-204.8 204.8c-18.619 18.619-51.2 18.619-69.818 0s-18.619-51.2 0-69.818l116.364-116.364h-442.182c-32.582 0-51.2-18.619-51.2-51.2s18.619-51.2 51.2-51.2h442.182l-116.364-116.364c-18.619-18.619-18.619-51.2 0-69.818 9.309-9.309 18.619-13.964 37.236-13.964 13.964 0 23.272 4.655 37.236 13.964l204.8 204.8c4.655 4.655 9.309 9.309 9.309 13.964 0 13.964 0 23.272-4.655 37.236z" />
<glyph unicode="&#xe91d;" glyph-name="tap-right" d="M1019.566 463.516c0 4.433-4.433 13.299-8.865 13.299l-381.229 381.229c-17.732 17.732-39.896 17.732-57.628 0s-17.732-39.896 0-57.628l310.303-310.303h-842.251c-22.164 0-39.896-17.732-39.896-39.896 0-13.299 4.433-22.164 13.299-31.031s17.732-13.299 31.031-13.299h842.251l-310.303-310.303c-17.732-17.732-17.732-39.896 0-57.628s39.896-17.732 57.628 0l381.229 381.229c4.433 4.433 8.865 8.865 8.865 13.299 0 13.299 0 22.164-4.433 31.031z" />
<glyph unicode="&#xe91e;" glyph-name="facebook" horiz-adv-x="944" d="M724.062 922.092h-499.951c-124.987 0-224.116-99.128-224.116-224.116v-495.641c0-129.298 99.128-228.426 224.116-228.426h495.641c124.987 0 224.116 99.128 224.116 224.116v499.951c4.31 124.987-94.819 224.116-219.806 224.116zM857.669 198.025c0-73.268-60.339-133.608-133.608-133.608h-271.525v288.765h103.438l17.24 112.058h-120.678v73.268c0 34.479 8.62 56.029 60.339 56.029h64.649v99.128c-12.93 0-47.409 4.31-94.819 4.31-90.508 0-155.157-51.719-155.157-146.538v-81.889h-103.438v-112.058h103.438v-288.765h-103.438c-73.268 0-133.608 60.339-133.608 133.608v495.641c0 73.268 60.339 133.608 133.608 133.608h495.641c73.268 0 133.608-60.339 133.608-133.608v-499.951z" />
<glyph unicode="&#xe91f;" glyph-name="facebook_colored" d="M819.2 960h-614.4c-111.709 0-204.8-93.091-204.8-204.8v-614.4c0-111.709 93.091-204.8 204.8-204.8h283.928v339.782h-130.328v153.6h130.328v111.709c0 130.328 79.127 200.146 195.491 200.146 55.855 0 102.4-4.655 116.364-4.655v-134.982h-79.127c-65.163 0-74.473-27.927-74.473-74.473v-97.746h148.945l-18.619-153.6h-130.328v-339.782h172.219c111.709 0 204.8 93.091 204.8 204.8v614.4c0 111.709-93.091 204.8-204.8 204.8z" />
<glyph unicode="&#xe920;" glyph-name="filter_img" d="M512 960c-283.928 0-512-228.073-512-512s228.073-512 512-512 512 232.727 512 512-232.727 512-512 512zM893.673 303.709l-218.763 23.272 172.219 349.091c46.546-60.509 69.818-144.291 69.818-228.073 4.655-51.2-4.655-102.4-23.272-144.291zM512 857.601c97.746 0 190.836-37.236 260.654-97.746l-97.746-200.146-274.618 279.273c37.236 13.964 69.818 18.619 111.709 18.619zM121.018 448c0 148.945 79.127 274.618 195.491 349.091l148.945-153.6-349.091-204.8c4.655 4.655 4.655 4.655 4.655 9.309zM307.2 443.345l74.473-381.673c-125.673 41.891-223.418 144.291-265.309 269.964l190.836 111.709zM525.964 564.364l102.4-102.4-60.509-116.364-139.636 13.964-23.272 134.982 121.018 69.818zM512 19.782c-4.655 0-9.309 0-13.964 0l-46.546 214.11 390.982-51.2c-74.473-93.091-195.491-162.909-330.473-162.909z" />
<glyph unicode="&#xe921;" glyph-name="filtering" d="M309.045 245.045h-258.306c-27.676 0-50.738-27.676-50.738-50.738s27.676-50.738 50.738-50.738h258.306c27.676 0 50.738 27.676 50.738 50.738s-27.676 50.738-50.738 50.738zM714.955 650.955h258.306c27.676 0 50.738 27.676 50.738 50.738s-23.063 55.351-50.738 55.351h-258.306c-27.676 0-50.738-27.676-50.738-50.738s27.676-55.351 50.738-55.351zM562.738 706.306c0 110.703-92.252 202.955-202.955 202.955-96.865 0-175.279-64.576-202.955-152.216h-106.090c-27.676 0-50.738-27.676-50.738-50.738s23.063-55.351 50.738-55.351h106.090c27.676-87.64 101.478-152.216 198.343-152.216 115.316 0 207.568 92.252 207.568 207.568zM359.784 600.216c-55.351 0-101.478 46.127-101.478 101.478s46.127 101.478 101.478 101.478 101.478-46.127 101.478-101.478c0-55.351-46.127-101.478-101.478-101.478zM973.262 245.045h-106.090c-27.676 87.64-101.478 152.216-198.343 152.216-110.703 0-202.955-92.252-202.955-202.955s92.252-202.955 202.955-202.955c96.865 0 175.279 64.576 198.343 152.216h106.090c27.676 0 50.738 27.676 50.738 50.738s-23.063 50.738-50.738 50.738zM664.216 88.216c-55.351 0-101.478 46.127-101.478 101.478s46.127 101.478 101.478 101.478 101.478-46.127 101.478-101.478c4.613-55.351-41.514-101.478-101.478-101.478z" />
<glyph unicode="&#xe922;" glyph-name="followers" d="M921.6 350.255c32.582 32.582 46.546 74.473 46.546 125.673v55.855c0 102.4-88.437 190.836-190.836 190.836s-190.836-88.437-190.836-190.836v-55.855c0-46.546 13.964-93.090 46.546-125.673-60.509-46.546-102.4-116.364-102.4-200.146v-134.981c0-27.927 27.927-55.855 55.855-55.855s55.855 27.927 55.855 55.855v134.981c0 74.473 60.509 134.981 134.981 134.981s134.981-60.509 134.981-134.981v-134.981c0-27.927 27.927-55.855 55.855-55.855s55.855 27.927 55.855 55.855v134.981c0 83.782-41.891 153.6-102.4 200.146zM861.091 475.927c0-41.891-37.236-79.127-79.127-79.127s-79.127 37.236-79.127 79.127v55.855c0 41.891 37.236 79.127 79.127 79.127s79.127-37.236 79.127-79.127v-55.855zM539.927 717.964c0 116.364-97.745 214.109-214.109 214.109s-218.763-97.745-218.763-214.109v-107.054c0-60.509 23.272-107.054 60.509-148.945-97.745-55.855-167.564-162.909-167.564-279.273v-162.909c0-27.927 27.927-55.855 55.855-55.855s55.855 27.927 55.855 55.855v162.909c0 116.364 97.745 214.109 214.109 214.109s214.109 97.745 214.109 214.109v107.054zM432.873 610.909c0-60.509-46.546-107.054-107.054-107.054s-107.054 46.546-107.054 107.054v107.054c0 60.509 46.546 107.054 107.054 107.054s107.054-46.546 107.054-107.054v-107.054z" />
<glyph unicode="&#xe923;" glyph-name="following" d="M654.222 618.667v113.778c0 123.259-104.297 227.556-227.556 227.556s-227.556-104.297-227.556-227.556v-113.778c0-61.63 23.703-113.778 61.63-161.186-99.556-56.889-175.408-170.667-175.408-293.926v-170.667c0-28.444 28.444-56.889 56.889-56.889s56.889 28.444 56.889 56.889v170.667c0 123.259 104.297 227.556 227.556 227.556s227.556 104.297 227.556 227.556zM312.889 618.667v113.778c0 61.63 52.148 113.778 113.778 113.778s113.778-52.148 113.778-113.778v-113.778c0-61.63-52.148-113.778-113.778-113.778s-113.778 52.148-113.778 113.778zM919.703 391.111c-23.703 23.703-56.889 23.703-80.592 0l-279.703-279.703-94.814 94.814c-23.703 23.703-56.889 23.703-80.592 0s-23.703-56.889 0-80.592l137.481-137.481c9.481-9.481 28.444-18.963 37.926-18.963 18.963 0 28.444 4.741 37.926 18.963l317.63 317.63c28.444 28.444 28.444 61.63 4.741 85.333z" />
<glyph unicode="&#xe924;" glyph-name="gallery" d="M358.4 522.473l-51.2 55.855-102.4-158.255h358.4l-102.4 256zM870.4 676.073h-102.4v107.054c0 88.437-65.163 153.6-153.6 153.6h-460.8c-88.437 0-153.6-69.818-153.6-153.6v-409.6c0-88.437 65.163-158.255 153.6-158.255h102.4v-102.4c0-88.437 65.163-153.6 153.6-153.6h460.8c88.437 0 153.6 65.163 153.6 153.6v409.6c0 88.437-65.163 153.6-153.6 153.6zM153.6 317.672c-27.927 0-51.2 27.927-51.2 51.2v414.254c0 23.272 23.272 51.2 51.2 51.2h460.8c27.927 0 51.2-27.927 51.2-51.2v-409.6c0-27.927-27.927-51.2-51.2-51.2h-460.8zM921.6 117.528c0-27.927-23.272-51.2-51.2-51.2h-460.8c-27.927 0-51.2 23.272-51.2 51.2v97.745h256c88.437 0 153.6 65.163 153.6 153.6v209.454h102.4c23.272 0 51.2-27.927 51.2-51.2v-409.6z" />
<glyph unicode="&#xe925;" glyph-name="hashtag" d="M716.8 499.2c27.927 0 51.2 23.272 51.2 51.2s-23.272 51.2-51.2 51.2h-51.2v51.2c0 23.272-27.927 51.2-51.2 51.2s-51.2-27.927-51.2-51.2v-51.2h-102.4v51.2c0 23.272-23.272 51.2-51.2 51.2s-51.2-27.927-51.2-51.2v-51.2h-51.2c-23.272 0-51.2-27.927-51.2-51.2s27.927-51.2 51.2-51.2h51.2v-102.4h-51.2c-23.272 0-51.2-23.272-51.2-51.2s27.927-51.2 51.2-51.2h51.2v-51.2c0-27.927 27.927-51.2 51.2-51.2s51.2 23.272 51.2 51.2v51.2h102.4v-51.2c0-27.927 23.272-51.2 51.2-51.2s51.2 23.272 51.2 51.2v51.2h51.2c27.927 0 51.2 27.927 51.2 51.2s-23.272 51.2-51.2 51.2h-51.2v102.4h51.2zM563.2 396.8h-102.4v102.4h102.4v-102.4zM819.2 960h-614.4c-111.709 0-204.8-93.091-204.8-204.8v-614.4c0-111.709 93.091-204.8 204.8-204.8h614.4c111.709 0 204.8 93.091 204.8 204.8v614.4c0 111.709-93.091 204.8-204.8 204.8zM921.601 140.8c0-55.855-46.546-102.4-102.4-102.4h-614.4c-55.855 0-102.4 46.546-102.4 102.4v614.4c0 55.855 46.546 102.4 102.4 102.4h614.4c55.855 0 102.4-46.546 102.4-102.4v-614.4z" />
<glyph unicode="&#xe926;" glyph-name="help" d="M507.345 303.709c0 0 0 0 0 0-4.655 0-4.655 0-4.655 0-32.582 0-51.2-27.927-51.2-55.855 0-32.582 23.272-55.855 51.2-55.855 0 0 0 0 4.655 0 0 0 0 0 4.655 0 27.927 0 51.2 23.272 51.2 55.855-4.655 32.582-32.582 55.855-55.855 55.855zM512 704.001c-102.4 0-153.6-74.473-153.6-148.945 0-9.309 0-18.619 4.655-32.582l83.782-4.655c0 0 0 4.655 0 4.655 0 4.655 0 9.309 0 13.964 0 0 0 4.655 0 4.655 0 37.236 18.619 74.473 65.163 74.473s65.163-32.582 65.163-60.509c0-18.619-9.309-41.891-32.582-55.855l-32.582-27.927c-32.582-23.272-46.546-55.855-46.546-93.091 0-9.309 0-18.619 0-32.582h69.818v4.655c0 32.582 9.309 51.2 37.236 65.163l27.927 18.619c41.891 32.582 65.163 69.818 65.163 130.328 0 69.818-51.2 139.636-153.6 139.636zM512 960c-283.928 0-512-228.073-512-512s228.073-512 512-512 512 232.727 512 512-232.727 512-512 512zM512 38.399c-223.418 0-409.601 186.182-409.601 409.601s186.182 409.601 409.601 409.601 409.601-186.182 409.601-409.601-186.182-409.601-409.601-409.601z" />
<glyph unicode="&#xe927;" glyph-name="hourglass" d="M432.147 485.578c-18.789 18.789-51.669 18.789-70.459 0s-18.789-51.669 0-70.459l103.34-103.34c9.394-9.394 18.789-14.092 37.578-14.092s23.486 4.698 37.578 14.092c18.789 18.789 18.789 51.669 0 70.459l-108.036 103.34zM920.661 706.349c-18.789 18.789-51.669 18.789-70.459 0l-75.156-70.459c-61.065 61.065-140.918 98.642-230.166 108.036v112.734h103.34c23.486 0 51.669 23.486 51.669 51.669s-23.486 51.669-51.669 51.669h-305.321c-23.486 0-51.669-23.486-51.669-51.669s23.486-51.669 51.669-51.669h103.34v-108.036c-197.285-23.486-356.992-192.587-356.992-403.963 0-225.468 183.193-408.661 408.661-408.661s408.661 183.193 408.661 408.661c0 79.853-23.486 155.009-61.065 216.074l75.156 75.156c18.789 18.789 18.789 56.367 0 70.459zM497.908 39.339c-169.101 0-305.321 136.22-305.321 305.321s136.22 305.321 305.321 305.321 305.321-136.22 305.321-305.321-136.22-305.321-305.321-305.321z" />
<glyph unicode="&#xe928;" glyph-name="hourglass_real" d="M763.346 783.127l-37.236 107.054c-13.964 37.236-51.2 69.818-97.746 69.818h-232.727c-41.891 0-83.782-23.272-97.746-69.818l-37.236-107.054c-60.509-37.236-107.054-107.054-107.054-181.527v-307.2c0-79.127 46.546-144.291 107.054-176.872l37.236-107.054c13.964-41.891 51.2-74.473 97.746-74.473h237.382c46.546 0 83.782 23.272 97.746 69.818l37.236 107.054c60.509 37.236 107.054 102.4 107.054 176.872v311.855c-4.655 74.473-51.2 144.291-111.709 181.527zM395.636 857.601h237.382l13.964-51.2h-269.964l18.619 51.2zM628.364 38.399h-232.727l-13.964 51.2h265.309l-18.619-51.2zM768.001 294.4c0-55.855-46.546-102.4-102.4-102.4h-307.2c-55.855 0-102.4 46.546-102.4 102.4v307.2c0 55.855 46.546 102.4 102.4 102.4h307.2c55.855 0 102.4-46.546 102.4-102.4v-307.2zM563.2 466.619v83.782c0 27.927-27.927 51.2-51.2 51.2s-51.2-27.927-51.2-51.2v-102.4c0-13.964 4.655-27.927 13.964-37.236l51.2-51.2c9.309-9.309 27.927-13.964 37.236-13.964s23.272 4.655 37.236 13.964c18.619 18.619 18.619 51.2 0 69.818l-37.236 37.236z" />
<glyph unicode="&#xe929;" glyph-name="idea" d="M141.136 471.472c0 0 0 0 0 0 0 4.695 0 4.695 0 4.695 0 28.167-23.472 46.945-46.945 46.945h-46.945c-28.167 0-46.945-23.472-46.945-46.945 0 0 0 0 0-4.695 0 0 0 0 0-4.695 0-28.167 23.472-46.945 46.945-46.945h46.945c23.472 9.389 46.945 28.167 46.945 51.639zM80.108 790.697l70.417-70.417c9.389-9.389 18.778-14.083 32.862-14.083s28.167 4.695 32.862 14.083c23.472 14.083 23.472 46.945 4.695 65.722l-4.695 4.695-70.417 65.722c-14.083 14.083-46.945 14.083-65.722 0-4.695-4.695-9.389-18.778-9.389-32.862s4.695-23.472 9.389-32.862zM230.331 236.748c-14.083 0-28.167-4.695-37.555-14.083l-70.417-70.417c-14.083-14.083-14.083-46.945 0-70.417 9.389-9.389 28.167-9.389 37.555-9.389s23.472 0 32.862 9.389l70.417 70.417c23.472 23.472 23.472 46.945 0 70.417-9.389 14.083-18.778 14.083-32.862 14.083zM685.696 715.585c-65.722 51.639-154.918 75.112-239.419 56.334-98.584-18.778-187.78-107.973-211.252-215.946-23.472-112.668 23.472-215.946 112.668-286.364 23.472-14.083 37.555-46.945 37.555-79.806v-42.25c0-70.417 56.334-122.056 126.751-122.056s126.751 51.639 126.751 122.056v46.945c0 32.862 14.083 56.334 42.25 79.806 70.417 51.639 112.668 131.446 112.668 220.64s-37.555 169.001-107.973 220.64zM544.862 147.553c0-14.083-14.083-32.862-32.862-32.862s-32.862 14.083-32.862 32.862v32.862h65.722v-32.862zM624.668 349.416c-28.167-23.472-46.945-46.945-65.722-75.112h-93.889c-9.389 32.862-32.862 51.639-56.334 75.112-56.334 42.25-89.196 117.362-75.112 192.473 9.389 65.722 65.722 126.751 136.14 140.834 14.083 0 32.862 4.695 42.25 4.695 42.25 0 84.501-14.083 117.362-42.25 42.25-37.555 70.417-89.196 70.417-150.223 0-56.334-28.167-107.973-75.112-145.529zM831.224 227.36c-9.389 9.389-23.472 14.083-37.555 14.083s-28.167-4.695-37.555-14.083c-14.083-14.083-14.083-46.945 0-70.417l70.417-70.417c9.389-9.389 23.472-14.083 32.862-14.083 4.695 0 14.083 4.695 18.778 4.695 9.389 0 14.083 4.695 18.778 9.389 0 4.695 4.695 4.695 4.695 9.389 14.083 18.778 14.083 42.25-4.695 61.029l-65.722 70.417zM803.057 720.28c9.389-9.389 23.472-14.083 32.862-14.083 0 0 0 0 4.695 0 0 0 0 0 4.695 0 9.389 0 23.472 4.695 32.862 14.083l70.417 70.417c4.695 4.695 4.695 9.389 9.389 14.083 14.083 18.778 9.389 37.555-9.389 56.334-14.083 4.695-28.167 9.389-42.25 9.389s-28.167-4.695-32.862-9.389l-70.417-70.417c-9.389-9.389-9.389-23.472-9.389-37.555 0-9.389 0-23.472 9.389-32.862zM976.754 518.417h-46.945c-28.167 0-46.945-23.472-46.945-46.945 0-28.167 23.472-46.945 46.945-46.945h46.945c28.167 0 46.945 23.472 46.945 46.945 4.695 28.167-18.778 46.945-46.945 46.945z" />
<glyph unicode="&#xe92a;" glyph-name="ig_story" d="M642.327 285.092l-13.964 121.018 83.782 88.437c18.619 13.964 9.309 46.546-9.309 46.546l-121.018 18.619-55.854 107.054c-9.309 18.619-41.891 18.619-51.2 0l-69.818-107.054-116.364-18.619c-18.619-4.655-32.582-32.582-13.964-46.546l83.782-88.437-13.964-121.018c0-23.272 18.619-41.891 37.236-32.582l111.709 51.2 111.709-51.2c13.964-9.309 41.891 9.309 37.236 32.582zM512 959.999v-102.4c223.418 0 409.6-186.182 409.6-409.6s-186.182-409.6-409.6-409.6v-102.4c279.272 0 511.999 232.727 511.999 511.999s-232.727 511.999-511.999 511.999zM358.4 857.6c0-28.277-22.923-51.2-51.2-51.2s-51.2 22.923-51.2 51.2c0 28.277 22.923 51.2 51.2 51.2s51.2-22.923 51.2-51.2zM153.601 704c0-28.277-22.923-51.2-51.2-51.2s-51.2 22.923-51.2 51.2c0 28.277 22.923 51.2 51.2 51.2s51.2-22.923 51.2-51.2zM102.4 448c0-28.277-22.923-51.2-51.2-51.2s-51.2 22.923-51.2 51.2c0 28.277 22.923 51.2 51.2 51.2s51.2-22.923 51.2-51.2zM153.601 192c0-28.277-22.923-51.2-51.2-51.2s-51.2 22.923-51.2 51.2c0 28.277 22.923 51.2 51.2 51.2s51.2-22.923 51.2-51.2zM358.4 38.4c0-28.277-22.923-51.2-51.2-51.2s-51.2 22.923-51.2 51.2c0 28.277 22.923 51.2 51.2 51.2s51.2-22.923 51.2-51.2z" />
<glyph unicode="&#xe92b;" glyph-name="important" d="M522.24 703.999c-5.12 0-5.12 0-10.24 0s-5.12 0-10.24 0c-20.48-5.12-35.84-20.48-40.96-40.96 0-5.12 0-5.12 0-10.24v-204.8c0-5.12 0-5.12 0-10.24 5.12-20.48 20.48-35.84 40.96-40.96 5.12 0 5.12 0 10.24 0s5.12 0 10.24 0c20.48 5.12 35.84 20.48 40.96 40.96 0 5.12 0 5.12 0 10.24v204.8c0 5.12 0 5.12 0 10.24-5.12 20.48-20.48 35.84-40.96 40.96zM547.84 279.040c-5.12 5.12-10.24 10.24-15.36 10.24-20.48 10.24-40.96 5.12-56.32-10.24-10.24-10.24-15.36-20.48-15.36-35.84s5.12-25.6 15.36-35.84c5.12-5.12 10.24-10.24 15.36-10.24 5.12-5.12 15.36-5.12 20.48-5.12s15.36 0 20.48 5.12c5.12 0 10.24 5.12 15.36 10.24 10.24 10.24 15.36 20.48 15.36 35.84 0 5.12 0 15.36-5.12 20.48 0 5.12-5.12 10.24-10.24 15.36zM512 960c-281.6 0-512-230.4-512-512s230.4-512 512-512 512 230.4 512 512-230.4 512-512 512zM512 38.401c-225.279 0-409.599 184.32-409.599 409.599s184.32 409.599 409.599 409.599 409.599-184.32 409.599-409.599c0-225.279-184.32-409.599-409.599-409.599z" />
<glyph unicode="&#xe92c;" d="M512-12.8c-254.515 0-460.8 206.285-460.8 460.8s206.285 460.8 460.8 460.8c254.515 0 460.8-206.285 460.8-460.8s-206.285-460.8-460.8-460.8z" />
<glyph unicode="&#xe92d;" d="M512 38.4c-225.843 0-409.6 183.757-409.6 409.6s183.757 409.6 409.6 409.6c225.843 0 409.6-183.757 409.6-409.6s-183.757-409.6-409.6-409.6zM512 960c-282.317 0-512-229.683-512-512s229.683-512 512-512c282.317 0 512 229.683 512 512s-229.683 512-512 512z" />
<glyph unicode="&#xe92e;" d="M512 704c-28.314 0-51.2-22.886-51.2-51.2v-204.8c0-28.314 22.886-51.2 51.2-51.2s51.2 22.886 51.2 51.2v204.8c0 28.314-22.886 51.2-51.2 51.2z" />
<glyph unicode="&#xe92f;" d="M475.648 279.552c-2.048-2.56-4.608-5.12-6.144-7.629-2.048-3.123-3.584-6.195-4.608-9.267-1.536-3.072-2.56-6.144-3.123-9.216-0.461-3.584-0.973-7.117-0.973-10.24 0-6.656 0.973-13.312 3.533-19.456 3.123-6.144 6.707-11.725 11.315-16.384 9.677-10.189 22.477-15.36 36.352-15.36 13.773 0 26.573 5.171 36.352 15.36 4.608 4.659 8.192 10.24 10.752 16.384s4.096 12.8 4.096 19.456c0 13.312-5.632 26.675-14.848 36.352-18.944 18.944-53.76 18.944-72.704 0z" />
<glyph unicode="&#xe930;" glyph-name="impression" d="M768 652.8h-204.8v153.6c0 88.437-65.163 153.6-153.6 153.6s-153.6-65.163-153.6-153.6v-256c-111.709 0-204.8-93.091-204.8-204.8 0-223.418 186.182-409.6 409.6-409.6h51.2c256 0 460.8 204.8 460.8 460.8v51.2c0 111.709-93.091 204.8-204.8 204.8zM870.4 396.8c0-200.146-158.255-358.4-358.4-358.4h-51.2c-167.564 0-307.2 139.636-307.2 307.2 0 55.855 46.546 102.4 102.4 102.4v-102.4c0-27.927 27.927-51.2 51.2-51.2s51.2 27.927 51.2 51.2v460.8c0 27.927 27.927 51.2 51.2 51.2s51.2-23.272 51.2-51.2v-256h307.2c55.855 0 102.4-46.546 102.4-102.4v-51.2z" />
<glyph unicode="&#xe931;" glyph-name="improve" d="M900.267 853.333h-81.067v4.267c0 55.467-46.933 102.4-102.4 102.4h-409.6c-55.467 0-102.4-46.933-102.4-102.4v-4.267h-81.067c-68.267 0-123.733-55.467-123.733-123.733v-25.6c0-162.133 123.733-294.4 281.6-307.2 46.933-51.2 106.667-85.333 179.2-98.133v-115.2c-89.6-21.333-153.6-102.4-153.6-196.267 0-29.867 21.333-51.2 51.2-51.2h307.2c29.867 0 51.2 21.333 51.2 51.2 0 93.867-64 174.933-153.6 196.267v115.2c68.267 12.8 132.267 46.933 179.2 98.133 157.867 12.8 281.6 145.067 281.6 307.2v25.6c0 68.267-55.467 123.733-123.733 123.733zM102.4 704v25.6c0 12.8 8.533 21.333 21.333 21.333h81.067v-149.333c0-29.867 4.267-55.467 12.8-81.067-68.267 34.133-115.2 102.4-115.2 183.467zM716.8 601.6c0-115.2-89.6-204.8-204.8-204.8s-204.8 93.867-204.8 204.8v256h409.6v-256zM422.4 38.4c17.067 29.867 51.2 51.2 89.6 51.2s72.533-21.333 89.6-51.2h-179.2zM921.6 704c0-81.067-46.933-149.333-115.2-183.467 8.533 25.6 12.8 51.2 12.8 81.067v149.333h81.067c12.8 0 21.333-8.533 21.333-21.333v-25.6z" />
<glyph unicode="&#xe932;" d="M512 345.6c-140.8 0-256 115.2-256 256v307.2h512v-307.2c0-140.8-115.2-256-256-256z" />
<glyph unicode="&#xe933;" d="M512 140.8c-85.333 0-153.6-68.267-153.6-153.6h307.2c0 85.333-68.267 153.6-153.6 153.6z" />
<glyph unicode="&#xe934;" d="M921.6 704c0-81.067-46.933-149.333-115.2-183.467 8.533 25.6 12.8 51.2 12.8 81.067v149.333h81.067c12.8 0 21.333-8.533 21.333-21.333v-25.6zM512 396.8c-110.933 0-204.8 93.867-204.8 204.8v256h409.6v-256c0-110.933-93.867-204.8-204.8-204.8zM601.6 38.4h-179.2c17.067 29.867 51.2 51.2 89.6 51.2s72.533-21.333 89.6-51.2zM102.4 704v25.6c0 12.8 8.533 21.333 21.333 21.333h81.067v-149.333c0-25.6 4.267-55.467 12.8-81.067-68.267 34.133-115.2 102.4-115.2 183.467zM900.267 853.333h-81.067v4.267c0 55.467-46.933 102.4-102.4 102.4h-409.6c-55.467 0-102.4-46.933-102.4-102.4v-4.267h-81.067c-68.267 0-123.733-55.467-123.733-123.733v-25.6c0-162.133 123.733-294.4 281.6-307.2 46.933-51.2 106.667-85.333 179.2-98.133v-115.2c-89.6-21.333-153.6-102.4-153.6-196.267 0-29.867 21.333-51.2 51.2-51.2h307.2c29.867 0 51.2 21.333 51.2 51.2 0 93.867-64 174.933-153.6 196.267v115.2c72.533 12.8 132.267 46.933 179.2 98.133 157.867 12.8 281.6 145.067 281.6 307.2v25.6c0 68.267-55.467 123.733-123.733 123.733z" />
<glyph unicode="&#xe935;" glyph-name="influencer_search" d="M1011.439 21.129l-187.823 187.823c64.031 76.837 102.449 179.286 102.449 286.004 0 256.122-204.898 461.020-461.020 461.020-260.391 4.269-465.289-200.629-465.289-456.751s204.898-461.020 461.020-461.020c106.718 0 209.167 38.418 286.004 102.449l187.823-187.823c8.537-8.537 21.343-17.075 34.149-17.075s25.612 4.269 38.418 17.075c21.343 17.075 21.343 51.224 4.269 68.3zM614.449 174.802c-46.955-21.343-98.18-34.149-153.673-34.149v0c-55.494 0-106.718 12.806-153.673 34.149v17.075c0 85.374 68.3 153.673 153.673 153.673s153.673-68.3 153.673-153.673v-17.075zM358.327 550.449c0 55.494 46.955 102.449 102.449 102.449s102.449-46.955 102.449-102.449-46.955-102.449-102.449-102.449-102.449 46.955-102.449 102.449zM605.912 405.313c38.418 38.418 59.762 89.643 59.762 145.136 0 110.986-89.643 204.898-204.898 204.898-110.986 0-204.898-93.912-204.898-204.898 0-55.494 25.612-106.718 64.031-145.136-55.494-38.418-93.912-93.912-106.718-162.211-64.031 64.031-106.718 153.673-106.718 256.122 0 196.361 162.211 358.571 358.571 358.571s358.571-162.211 358.571-358.571c0-98.18-42.687-192.092-106.718-256.122-17.075 68.3-59.762 123.792-110.986 162.211z" />
<glyph unicode="&#xe936;" d="M264.533 140.8c59.733-34.133 128-51.2 196.267-51.2s140.8 17.067 196.267 51.2h-392.533z" />
<glyph unicode="&#xe937;" d="M460.8 908.8c-226.133 0-409.6-183.467-409.6-409.6 0-153.6 81.067-281.6 204.8-354.133v46.933c0 115.2 89.6 204.8 204.8 204.8-85.333 0-153.6 68.267-153.6 153.6s68.267 153.6 153.6 153.6 153.6-68.267 153.6-153.6-68.267-153.6-153.6-153.6c115.2 0 204.8-89.6 204.8-204.8v-46.933c123.733 72.533 204.8 204.8 204.8 354.133 0 226.133-183.467 409.6-409.6 409.6z" />
<glyph unicode="&#xe938;" d="M307.2 174.933v17.067c0 85.333 68.267 153.6 153.6 153.6s153.6-68.267 153.6-153.6v-17.067c-46.933-21.333-98.133-34.133-153.6-34.133s-106.667 12.8-153.6 34.133zM358.4 550.4c0 55.467 46.933 102.4 102.4 102.4s102.4-46.933 102.4-102.4c0-55.467-46.933-102.4-102.4-102.4s-102.4 46.933-102.4 102.4zM102.4 499.2c0 196.267 162.133 358.4 358.4 358.4s358.4-162.133 358.4-358.4c0-98.133-42.667-192-106.667-256-12.8 68.267-51.2 123.733-106.667 162.133 38.4 38.4 59.733 89.6 59.733 145.067 0 110.933-93.867 204.8-204.8 204.8s-204.8-93.867-204.8-204.8c0-55.467 25.6-110.933 59.733-145.067-55.467-38.4-93.867-93.867-106.667-162.133-64 64-106.667 157.867-106.667 256zM1006.933 21.333l-187.733 187.733c64 76.8 102.4 179.2 102.4 285.867 0 256-204.8 460.8-460.8 460.8s-460.8-200.533-460.8-456.533c0-256 204.8-460.8 460.8-460.8 106.667 0 209.067 38.4 285.867 102.4l187.733-187.733c8.533-8.533 21.333-17.067 34.133-17.067s25.6 4.267 34.133 17.067c25.6 17.067 25.6 51.2 4.267 68.267z" />
<glyph unicode="&#xe939;" glyph-name="info" d="M522.24 703.999c-5.12 0-5.12 0-10.24 0s-5.12 0-10.24 0c-20.48-5.12-35.84-20.48-40.96-40.96 0-5.12 0-5.12 0-10.24v-204.8c0-5.12 0-5.12 0-10.24 5.12-20.48 20.48-35.84 40.96-40.96 5.12 0 5.12 0 10.24 0s5.12 0 10.24 0c20.48 5.12 35.84 20.48 40.96 40.96 0 5.12 0 5.12 0 10.24v204.8c0 5.12 0 5.12 0 10.24-5.12 20.48-20.48 35.84-40.96 40.96zM547.84 279.040c-5.12 5.12-10.24 10.24-15.36 10.24-20.48 10.24-40.96 5.12-56.32-10.24-10.24-10.24-15.36-20.48-15.36-35.84s5.12-25.6 15.36-35.84c5.12-5.12 10.24-10.24 15.36-10.24 5.12-5.12 15.36-5.12 20.48-5.12s15.36 0 20.48 5.12c5.12 0 10.24 5.12 15.36 10.24 10.24 10.24 15.36 20.48 15.36 35.84 0 5.12 0 15.36-5.12 20.48 0 5.12-5.12 10.24-10.24 15.36zM512 960c-281.6 0-512-230.4-512-512s230.4-512 512-512 512 230.4 512 512-230.4 512-512 512zM512 38.401c-225.279 0-409.599 184.32-409.599 409.599s184.32 409.599 409.599 409.599 409.599-184.32 409.599-409.599c0-225.279-184.32-409.599-409.599-409.599z" />
<glyph unicode="&#xe93a;" glyph-name="instagra_colored" d="M512 571.349c-68.123 0-123.349-55.225-123.349-123.349s55.225-123.349 123.349-123.349c68.123 0 123.349 55.225 123.349 123.349v0c-0.087 68.088-55.26 123.263-123.34 123.349h-0.008zM657.114 762.209h-290.227c-93.345-0.111-168.985-75.752-169.096-169.086v-290.238c0.111-93.345 75.752-168.985 169.086-169.096h290.238c93.345 0.111 168.985 75.752 169.096 169.086v290.238c-0.111 93.345-75.752 168.985-169.086 169.096h-0.011zM512 259.487c-104.113 0-188.513 84.4-188.513 188.513s84.4 188.513 188.513 188.513c104.113 0 188.513-84.4 188.513-188.513v0c-0.124-104.063-84.45-188.389-188.501-188.513h-0.012zM719.147 607.942c-25.71 0-46.552 20.842-46.552 46.552s20.842 46.552 46.552 46.552c25.687 0 46.515-20.805 46.552-46.483v-0.003c0-0.025 0-0.056 0-0.087 0-25.71-20.842-46.552-46.552-46.552 0 0 0 0 0 0v0zM1022.637 720.354c-0.066 19.481-1.898 38.489-5.346 56.929l0.302-1.941c-4.218 22.156-10.154 43.747-20.764 63.773-11.596 21.878-25.796 40.607-42.526 56.727l-0.068 0.066c-25.157 24.641-56.504 43.060-91.49 52.705l-1.483 0.348c-32.245 8.697-65.229 10.523-98.3 10.48-0.105 0.139-0.176 0.31-0.195 0.496v0.004h-501.701c0-0.174 0-0.348 0-0.5-18.808-0.348-37.659-0.195-56.358-2.523-22.308-2.407-42.686-7.157-62.038-14.065l1.875 0.584c-31.402-11.78-58.115-29.663-79.832-52.366l-0.074-0.079c-24.824-25.216-43.374-56.68-53.073-91.816l-0.349-1.484c-8.567-32.006-10.436-64.642-10.48-97.518l-0.348-503.722c0.608-22.722 0.805-45.661 4.631-68.186 4.066-23.917 9.871-47.204 20.961-68.904 15.272-29.706 35.99-54.565 61.044-74.125l0.488-0.367c17.518-14.062 37.955-25.408 60.147-32.96l1.408-0.416c32.876-10.61 66.795-14.677 101.214-14.872 21.482-0.131 42.921-0.674 64.403-0.587 155.986 0.652 311.992-1.131 467.977 0.957 22.031 0.497 43.183 2.848 63.72 6.908l-2.339-0.385c39.977 7.21 74.953 24.948 103.010 50.218l-0.187-0.166c34.31 30.614 57.467 68.055 67.926 113.259 6.849 29.549 8.545 59.532 8.849 89.603v6.001c-0.021 2.348-0.913 511.181-1 517.921zM891.352 302.886c-0.16-129.306-104.934-234.088-234.221-234.261h-290.244c-129.314 0.16-234.099 104.947-234.261 234.245v290.243c0.16 129.314 104.947 234.099 234.245 234.261h290.243c129.314-0.16 234.099-104.947 234.261-234.245v-0.016z" />
<glyph unicode="&#xe93b;" glyph-name="instagram" d="M512 866.908c134.981 0 153.6 0 204.799-4.655 51.2 0 79.127-9.309 93.090-18.619 23.272-9.309 41.891-18.619 60.509-37.236s27.927-37.236 37.236-60.509c9.309-18.619 13.964-46.546 18.619-93.090 4.655-51.2 4.655-69.818 4.655-204.799s0-153.6-4.655-204.799c0-51.2-9.309-79.127-18.619-93.090-9.309-23.272-18.619-41.891-37.236-60.509s-37.236-27.927-60.509-37.236c-18.619-9.309-46.546-13.964-93.090-18.619-51.2-4.655-69.818-4.655-204.799-4.655s-153.6 0-204.799 0c-51.2 0-79.127 9.309-93.090 18.619-23.272 9.309-41.891 18.619-60.509 37.236s-27.927 37.236-37.236 60.509c-9.309 18.619-13.964 46.546-18.619 93.090-4.655 55.854-4.655 74.473-4.655 209.454s0 153.6 0 204.799c0 51.2 9.309 79.127 18.619 93.090 9.309 27.927 23.272 46.546 37.236 65.163 18.619 13.964 37.236 27.927 60.509 37.236 18.619 9.309 46.546 13.964 93.090 18.619 55.854 0 74.473 0 209.454 0zM512 959.999c-139.636 0-158.255 0-209.454-4.655-55.854-4.655-93.090-9.309-125.673-23.272s-60.509-27.927-93.090-55.854c-27.927-27.927-46.546-55.854-60.509-88.437-9.309-37.236-18.619-74.473-18.619-130.327-4.655-51.2-4.655-69.818-4.655-209.454s0-158.255 4.655-209.454c4.655-55.854 9.309-93.090 23.272-125.673s32.582-60.509 60.509-88.437c27.927-27.927 55.854-46.546 88.437-60.509s69.818-23.272 125.673-23.272c51.2-4.655 69.818-4.655 209.454-4.655s158.255 0 209.454 4.655c55.854 4.655 93.090 9.309 125.673 23.272s60.509 32.582 88.437 60.509c27.927 27.927 46.546 55.854 60.509 88.437s23.272 69.818 23.272 125.673c4.655 51.2 4.655 69.818 4.655 209.454s0 158.255-4.655 209.454c-4.655 55.854-9.309 93.090-23.272 125.673s-32.582 60.509-60.509 88.437c-27.927 27.927-55.854 46.546-88.437 60.509s-69.818 23.272-125.673 23.272c-51.2 4.655-69.818 4.655-209.454 4.655v0zM512 708.654c-144.291 0-260.654-116.364-260.654-260.654s116.364-260.654 260.654-260.654 260.654 116.364 260.654 260.654-116.364 260.654-260.654 260.654zM512 275.782c-93.090 0-172.218 74.473-172.218 172.218 0 93.090 74.473 172.218 172.218 172.218 93.090 0 172.218-74.473 172.218-172.218 0-93.090-79.127-172.218-172.218-172.218zM847.127 722.617c0-33.418-27.091-60.509-60.509-60.509s-60.509 27.091-60.509 60.509c0 33.418 27.091 60.509 60.509 60.509s60.509-27.091 60.509-60.509z" />
<glyph unicode="&#xe93c;" glyph-name="landscape" d="M255.999 38.399h-153.6v153.6c0 23.272-23.272 51.2-51.2 51.2s-51.2-27.927-51.2-51.2v-204.8c0-27.927 23.272-51.2 51.2-51.2h204.8c27.927 0 51.2 23.272 51.2 51.2 0 23.272-23.272 51.2-51.2 51.2zM51.2 652.8c27.927 0 51.2 23.272 51.2 51.2v153.6h153.6c27.927 0 51.2 23.272 51.2 51.2s-23.272 51.2-51.2 51.2h-204.8c-27.927 0-51.2-23.272-51.2-51.2v-204.8c0-27.927 23.272-51.2 51.2-51.2zM153.6 550.4v-204.8c0-55.855 46.546-102.4 102.4-102.4h512c55.855 0 102.4 46.546 102.4 102.4v204.8c0 55.855-46.546 102.4-102.4 102.4h-512c-55.855 0-102.4-46.546-102.4-102.4zM768.001 345.6h-512v204.8h512v-204.8zM972.8 960h-204.8c-23.272 0-51.2-23.272-51.2-51.2s27.927-51.2 51.2-51.2h153.6v-153.6c0-27.927 27.927-51.2 51.2-51.2 27.927 0 51.2 23.272 51.2 51.2v204.8c0 27.927-23.272 51.2-51.2 51.2zM972.8 243.2c-23.272 0-51.2-27.927-51.2-51.2v-153.6h-153.6c-23.272 0-51.2-27.927-51.2-51.2 0-27.927 27.927-51.2 51.2-51.2h204.8c27.927 0 51.2 23.272 51.2 51.2v204.8c0 23.272-23.272 51.2-51.2 51.2z" />
<glyph unicode="&#xe93d;" glyph-name="likes" d="M955.037 760.458c-102.599 116.589-279.813 135.243-401.065 32.645l-46.636-41.972-46.636 46.636c-51.299 51.299-121.252 69.953-200.533 65.289-74.617-4.664-139.907-37.308-191.205-97.935-102.599-116.589-88.608-298.468 32.645-401.065l377.748-326.449c9.327-9.327 18.655-9.327 37.308-9.327s23.317 0 37.308 9.327l377.748 321.785c111.925 107.261 125.916 284.477 23.317 401.065z" />
<glyph unicode="&#xe93e;" glyph-name="likes_empty" d="M959.548 765.013c-102.564 116.549-279.718 135.197-400.928 32.634l-46.62-41.958-46.62 46.62c-55.944 46.62-125.873 69.929-205.126 65.267-74.592-9.324-144.521-41.958-195.802-97.901-41.958-46.62-60.606-102.564-65.267-167.831 0-13.986 0-32.634 0-51.281 4.662-69.929 41.958-144.521 97.901-195.802l377.619-317.013c9.324-9.324 23.309-9.324 37.295-9.324 9.324 0 13.986 0 18.648 0s9.324 4.662 13.986 9.324l377.619 321.675c51.281 41.958 83.915 97.901 93.239 158.507 18.648 83.915 4.662 177.154-55.944 247.084zM917.591 620.493c9.324-55.944 0-121.211-41.958-167.831-4.662 0-9.324-4.662-13.986-9.324l-349.647-303.027-349.647 303.027c-4.662 4.662-9.324 9.324-18.648 13.986 0 9.324-4.662 13.986-4.662 18.648 0 0 0 4.662-4.662 4.662-18.648 27.972-27.972 65.267-32.634 97.901 0 37.295 9.324 69.929 32.634 97.901 4.662 9.324 4.662 13.986 9.324 18.648 23.309 23.309 55.944 46.62 88.578 55.944 13.986 0 23.309 4.662 37.295 4.662h9.324c41.958 0 83.915-13.986 116.549-41.958l83.915-69.929c18.648-13.986 46.62-13.986 65.267 0l83.915 65.267c69.929 60.606 186.479 55.944 251.746-18.648 13.986-13.986 23.309-37.295 32.634-55.944 0-4.662 4.662-9.324 4.662-13.986z" />
<glyph unicode="&#xe93f;" glyph-name="list_view" d="M970.228 144.073h-509.662c-23.379 0-51.433-23.379-51.433-51.433 0-23.379 23.379-51.433 51.433-51.433h509.662c23.379 0 51.433 23.379 51.433 51.433s-23.379 51.433-51.433 51.433zM970.228 499.433h-509.662c-23.379 0-51.433-23.379-51.433-51.433 0-23.379 23.379-51.433 51.433-51.433h509.662c23.379 0 51.433 23.379 51.433 51.433s-23.379 51.433-51.433 51.433zM460.567 756.603h509.662c23.379 0 51.433 23.379 51.433 51.433 0 23.379-23.379 51.433-51.433 51.433h-509.662c-23.379 0-51.433-23.379-51.433-51.433 4.676-28.055 28.055-51.433 51.433-51.433zM156.639 293.699c84.164 0 154.301 70.137 154.301 154.301s-70.137 154.301-154.301 154.301c-84.164 0-154.301-70.137-154.301-154.301s70.137-154.301 154.301-154.301zM156.639 504.11c28.055 0 56.11-23.379 56.11-56.11 0-28.055-23.379-56.11-56.11-56.11-28.055 0-56.11 23.379-56.11 56.11 4.676 32.731 28.055 56.11 56.11 56.11zM156.639 246.94c-84.164 0-154.301-70.137-154.301-154.301s70.137-154.301 154.301-154.301c84.164 0 154.301 70.137 154.301 154.301 4.676 84.164-65.461 154.301-154.301 154.301zM156.639 36.529c-28.055 0-56.11 23.379-56.11 56.11 0 28.055 23.379 56.11 56.11 56.11 28.055 0 56.11-23.379 56.11-56.11s-23.379-56.11-56.11-56.11zM156.639 962.338c-84.164 0-154.301-70.137-154.301-154.301s70.137-154.301 154.301-154.301c84.164 0 154.301 70.137 154.301 154.301 4.676 84.164-65.461 154.301-154.301 154.301zM156.639 751.927c-28.055 0-51.433 23.379-51.433 56.11 0 28.055 23.379 56.11 56.11 56.11 28.055 0 56.11-23.379 56.11-56.11-4.676-32.731-28.055-56.11-60.786-56.11z" />
<glyph unicode="&#xe940;" glyph-name="listen" d="M512 559.397c59.983 0 107.113-47.129 107.113-107.113s-47.129-107.113-107.113-107.113-107.113 47.129-107.113 107.113 47.129 107.113 107.113 107.113zM306.343 456.569c0-85.69 25.707-167.096 72.836-235.649 17.138-25.707 8.569-55.699-12.854-72.836-8.569-4.285-17.138-8.569-29.992-8.569-17.138 0-34.276 8.569-42.845 21.422-59.983 85.69-89.975 188.518-89.975 295.632 0 94.26 25.707 188.518 72.836 269.925 17.138 25.707 47.129 34.276 72.836 21.422 25.707-17.138 34.276-47.129 17.138-72.836-38.561-64.268-59.983-141.389-59.983-218.51zM104.971 465.138c0-128.535 38.561-257.071 111.397-364.184 17.138-25.707 8.569-55.699-12.854-72.836-12.854-4.285-21.422-8.569-29.992-8.569-17.138 0-34.276 8.569-42.845 21.422-85.69 124.251-128.535 269.925-128.535 419.882 0 137.104 38.561 269.925 107.113 385.606 12.854 29.992 42.845 38.561 68.553 21.422 25.707-12.854 34.276-47.129 17.138-72.836-59.983-98.544-89.975-214.225-89.975-329.907zM747.649 730.778c47.129-81.406 72.836-175.665 72.836-269.925 0-107.113-29.992-205.657-89.975-295.632-8.569-17.138-25.707-21.422-42.845-21.422-8.569 0-21.422 4.285-29.992 8.569-25.707 17.138-29.992 47.129-12.854 72.836 47.129 68.553 72.836 149.958 72.836 235.649 0 77.121-21.422 149.958-59.983 214.225-17.138 25.707-8.569 55.699 17.138 72.836 25.707 12.854 55.699 4.285 72.836-17.138zM919.029 850.745c68.553-115.682 107.113-248.502 107.113-385.606 0-149.958-42.845-295.632-128.535-419.882-8.569-17.138-25.707-21.422-42.845-21.422-8.569 0-21.422 4.285-29.992 8.569-25.707 17.138-29.992 47.129-12.854 72.836 72.836 107.113 111.397 231.364 111.397 364.184 0 115.682-29.992 231.364-89.975 334.192-12.854 25.707-8.569 55.699 17.138 72.836 21.422 8.569 51.414 0 68.553-25.707z" />
<glyph unicode="&#xe941;" glyph-name="listen-active" d="M512 559.397c59.983 0 107.113-47.129 107.113-107.113s-47.129-107.113-107.113-107.113-107.113 47.129-107.113 107.113 47.129 107.113 107.113 107.113zM306.343 456.569c0-85.69 25.707-167.096 72.836-235.649 17.138-25.707 8.569-55.699-12.854-72.836-8.569-4.285-17.138-8.569-29.992-8.569-17.138 0-34.276 8.569-42.845 21.422-59.983 85.69-89.975 188.518-89.975 295.632 0 94.26 25.707 188.518 72.836 269.925 17.138 25.707 47.129 34.276 72.836 21.422 25.707-17.138 34.276-47.129 17.138-72.836-38.561-64.268-59.983-141.389-59.983-218.51zM104.971 465.138c0-128.535 38.561-257.071 111.397-364.184 17.138-25.707 8.569-55.699-12.854-72.836-12.854-4.285-21.422-8.569-29.992-8.569-17.138 0-34.276 8.569-42.845 21.422-85.69 124.251-128.535 269.925-128.535 419.882 0 137.104 38.561 269.925 107.113 385.606 12.854 29.992 42.845 38.561 68.553 21.422 25.707-12.854 34.276-47.129 17.138-72.836-59.983-98.544-89.975-214.225-89.975-329.907zM747.649 730.778c47.129-81.406 72.836-175.665 72.836-269.925 0-107.113-29.992-205.657-89.975-295.632-8.569-17.138-25.707-21.422-42.845-21.422-8.569 0-21.422 4.285-29.992 8.569-25.707 17.138-29.992 47.129-12.854 72.836 47.129 68.553 72.836 149.958 72.836 235.649 0 77.121-21.422 149.958-59.983 214.225-17.138 25.707-8.569 55.699 17.138 72.836 25.707 12.854 55.699 4.285 72.836-17.138zM919.029 850.745c68.553-115.682 107.113-248.502 107.113-385.606 0-149.958-42.845-295.632-128.535-419.882-8.569-17.138-25.707-21.422-42.845-21.422-8.569 0-21.422 4.285-29.992 8.569-25.707 17.138-29.992 47.129-12.854 72.836 72.836 107.113 111.397 231.364 111.397 364.184 0 115.682-29.992 231.364-89.975 334.192-12.854 25.707-8.569 55.699 17.138 72.836 21.422 8.569 51.414 0 68.553-25.707z" />
<glyph unicode="&#xe942;" glyph-name="location" d="M563.2 666.763c0-28.277-22.923-51.2-51.2-51.2s-51.2 22.923-51.2 51.2c0 28.277 22.923 51.2 51.2 51.2s51.2-22.923 51.2-51.2zM269.963 489.891l200.146-269.964c9.309-9.309 27.927-18.619 41.891-18.619s32.582 9.309 41.891 18.619l200.146 265.309c79.127 107.054 74.473 246.691 0 349.091-13.964 18.619-27.927 41.891-46.546 55.855-111.709 93.091-269.964 93.091-381.673 0-74.473-65.163-111.709-158.255-107.054-251.345 4.655-51.2 18.619-107.054 51.2-148.945zM670.255 545.745l-158.255-209.455-158.255 209.455c-55.855 83.782-41.891 200.146 32.582 260.654 37.236 32.582 83.782 46.546 125.673 46.546s88.437-13.964 125.673-46.546c74.473-60.509 88.437-176.872 32.582-260.654zM842.472 378.182c-27.927 13.964-55.855 4.655-74.473-18.619-13.964-27.927-4.655-55.855 18.619-74.473 51.2-27.927 83.782-60.509 83.782-93.091 0-74.473-158.255-148.945-363.055-148.945s-358.4 79.127-358.4 148.945c0 32.582 32.582 60.509 83.782 93.091 27.927 13.964 37.236 46.546 18.619 74.473-9.309 27.927-46.546 37.236-74.473 18.619-83.782-46.546-134.981-116.364-134.981-186.182 0-144.291 204.8-256 470.109-256s470.109 111.709 470.109 256c0 74.473-51.2 139.636-139.636 186.182z" />
<glyph unicode="&#xe943;" glyph-name="love_rate" d="M1022.992 605.943c4.646 74.326-13.936 144.007-69.681 204.396-51.099 55.745-120.78 92.907-195.106 97.553-69.681 4.646-144.007-13.936-199.752-65.035l-46.454-37.163-46.454 41.808c-60.39 41.808-130.071 65.035-204.396 60.39-78.971-4.646-144.007-41.808-195.106-97.553-97.553-120.78-88.263-297.305 32.518-394.858l241.56-204.396c4.646-9.29 13.936-18.582 27.872-27.872l218.333-185.816c9.29-9.29 18.582-9.29 32.518-9.29 9.29 0 27.872 4.646 37.163 9.29l218.333 185.816c37.163 32.518 60.39 78.971 60.39 125.425 4.646 37.163 0 74.326-9.29 102.199 55.745 51.099 92.907 116.135 97.553 195.106zM809.305 262.184l-185.816-162.588-185.816 162.588c-13.936 13.936-27.872 32.518-27.872 55.745 0 18.582 4.646 41.808 18.582 55.745s32.518 27.872 55.745 27.872h4.646c18.582 0 37.163-4.646 51.099-18.582l46.454-41.808c18.582-13.936 46.454-13.936 69.681 0l46.454 41.808c13.936 13.936 37.163 18.582 55.745 18.582s41.808-9.29 55.745-27.872c32.518-32.518 27.872-78.971-4.646-111.489zM911.502 610.588c0-41.808-27.872-88.263-55.745-120.78l-9.29-9.29c-27.872 9.29-51.099 18.582-78.971 27.872-51.099 4.646-97.553-9.29-134.716-46.454l-13.936-13.936-9.29 9.29c-41.808 37.163-88.263 51.099-139.361 46.454s-92.907-27.872-125.425-60.39c-18.582-18.582-27.872-46.454-37.163-65.035l-144.007 111.489c-69.681 69.681-78.971 181.17-18.582 250.851 32.518 37.163 74.326 55.745 120.78 60.39 4.646 0 9.29 0 13.936 0 41.808 0 83.617-13.936 116.135-41.808l78.971-69.681c18.582-13.936 46.454-13.936 69.681 0l83.617 69.681c32.518 32.518 78.971 41.808 125.425 41.808 46.454-4.646 88.263-27.872 120.78-60.39 27.872-37.163 41.808-83.617 37.163-130.071z" />
<glyph unicode="&#xe944;" glyph-name="menu" d="M717.714 137.143h-667.428c-27.429 0-50.285-27.429-50.285-50.285s22.857-50.285 50.285-50.285h667.428c27.429 0 50.285 27.429 50.285 50.285s-22.857 50.285-50.285 50.285zM973.714 498.285h-923.428c-27.429 0-50.285-27.429-50.285-50.285s27.429-50.285 50.285-50.285h923.428c27.429 0 50.285 27.429 50.285 50.285s-22.857 50.285-50.285 50.285zM50.286 758.857h923.428c27.429 0 50.285 27.429 50.285 50.285s-22.857 50.285-50.285 50.285h-923.428c-27.429 0-50.285-27.429-50.285-50.285s22.857-50.285 50.285-50.285z" />
<glyph unicode="&#xe945;" glyph-name="minus_circle" d="M716.8 499.2h-409.601c-23.272 0-51.2-27.927-51.2-51.2s27.927-51.2 51.2-51.2h409.601c27.927 0 51.2 27.927 51.2 51.2s-23.272 51.2-51.2 51.2zM512 960c-283.928 0-512-228.073-512-512s228.073-512 512-512 512 232.727 512 512-232.727 512-512 512zM512 38.399c-223.418 0-409.601 186.182-409.601 409.601s186.182 409.601 409.601 409.601 409.601-186.182 409.601-409.601c0-223.418-186.182-409.601-409.601-409.601z" />
<glyph unicode="&#xe946;" glyph-name="money" d="M242.036 587.636c-4.655 4.655-13.964 9.309-18.619 9.309-13.964 4.655-23.272 4.655-37.236 0-9.309 0-13.964-4.655-18.619-9.309s-9.309-9.309-9.309-18.619c-4.655-4.655-4.655-13.964-4.655-18.619s0-13.964 4.655-18.619c0-4.655 4.655-9.309 9.309-13.964s9.309-9.309 13.964-9.309c4.655-4.655 13.964-4.655 18.619-4.655s13.964 0 18.619 4.655c4.655 0 9.309 4.655 13.964 9.309s9.309 9.309 9.309 13.964c4.655 4.655 4.655 13.964 4.655 18.619s0 13.964-4.655 18.619c9.309 9.309 4.655 13.964 0 18.619zM512 755.2c-111.709 0-204.8-93.091-204.8-204.8s93.091-204.8 204.8-204.8 204.8 93.091 204.8 204.8-93.091 204.8-204.8 204.8zM512 448c-55.855 0-102.4 46.546-102.4 102.4s46.546 102.4 102.4 102.4 102.4-46.546 102.4-102.4c0-55.855-46.546-102.4-102.4-102.4zM856.436 587.636c-4.655 4.655-9.309 9.309-13.964 9.309-18.619 9.309-41.891 4.655-55.855-9.309-4.655-4.655-9.309-9.309-9.309-13.964-4.655-4.655-4.655-13.964-4.655-18.619s0-13.964 4.655-18.619c0-4.655 4.655-9.309 9.309-13.964s9.309-9.309 13.964-9.309c4.655-4.655 13.964-4.655 18.619-4.655s13.964 0 18.619 4.655c4.655 0 9.309 4.655 13.964 9.309 9.309 9.309 13.964 18.619 13.964 37.236 0 4.655 0 13.964-4.655 18.619 4.655 0 0 4.655-4.655 9.309zM870.399 908.8h-716.8c-88.437 0-153.6-65.163-153.6-153.6v-614.4c0-88.437 65.163-153.6 153.6-153.6h716.8c88.437 0 153.6 65.163 153.6 153.6v614.4c0 88.437-65.163 153.6-153.6 153.6zM921.6 140.8c0-23.272-23.272-51.2-51.2-51.2h-716.8c-27.927 0-51.2 27.927-51.2 51.2v60.509c13.964-4.655 37.236-9.309 51.2-9.309h716.8c13.964 0 37.236 4.655 51.2 9.309v-60.509zM921.6 345.6c0-27.927-23.272-51.2-51.2-51.2h-716.8c-27.927 0-51.2 27.927-51.2 51.2v409.6c0 27.927 23.272 51.2 51.2 51.2h716.8c23.272 0 51.2-23.272 51.2-51.2v-409.6z" />
<glyph unicode="&#xe947;" glyph-name="money_coin" d="M484.073 550.4h130.328c27.927 0 51.2 27.927 51.2 51.2s-27.927 51.2-51.2 51.2h-51.2v23.272c0 27.927-27.927 51.2-51.2 51.2s-51.2-27.927-51.2-51.2v-23.272c-55.855-13.964-102.4-65.163-102.4-130.328 0-69.818 55.855-130.328 130.328-130.328h51.2c13.964 0 27.927-9.309 27.927-23.272s-9.309-27.927-27.927-27.927h-130.328c-27.927 0-51.2-27.927-51.2-51.2s27.927-51.2 51.2-51.2h51.2v-23.272c0-23.272 27.927-51.2 51.2-51.2s51.2 23.272 51.2 51.2v27.927c55.855 9.309 102.4 60.509 102.4 130.328s-55.855 130.328-130.328 130.328h-51.2c-13.964 0-27.927 9.309-27.927 23.272s13.964 23.272 27.927 23.272zM512 960c-283.928 0-512-228.073-512-512s228.073-512 512-512 512 232.727 512 512-232.727 512-512 512zM512 38.399c-223.418 0-409.601 186.182-409.601 409.601s186.182 409.601 409.601 409.601 409.601-186.182 409.601-409.601-186.182-409.601-409.601-409.601z" />
<glyph unicode="&#xe948;" glyph-name="money_dollar" d="M563.2 499.2h-102.4c-55.855 0-102.4 46.546-102.4 102.4s46.546 102.4 102.4 102.4h256.001c27.927 0 51.2 27.927 51.2 51.2s-23.272 51.2-51.2 51.2h-153.6v102.4c0 27.927-23.272 51.2-51.2 51.2s-51.2-23.272-51.2-51.2v-102.4c-111.709 0-204.8-93.091-204.8-204.8s93.091-204.8 204.8-204.8h102.4c55.855 0 102.4-46.546 102.4-102.4s-46.546-102.4-102.4-102.4h-256.001c-23.272 0-51.2-23.272-51.2-51.2 0-23.272 27.927-51.2 51.2-51.2h153.6v-102.4c0-27.927 27.927-51.2 51.2-51.2s51.2 23.272 51.2 51.2v102.4c111.709 0 204.8 93.091 204.8 204.8s-93.091 204.8-204.8 204.8z" />
<glyph unicode="&#xe949;" glyph-name="money_hand" d="M1012.203 235.65c-9.437 23.594-23.594 47.189-42.47 61.346-33.033 28.313-75.503 42.47-117.973 37.751l-198.193-37.751c-4.719 9.437-4.719 18.876-9.437 23.594-9.437 18.876-28.313 37.751-51.907 47.189l-217.069 108.534c-33.033 18.876-70.783 23.594-103.816 18.876l-221.787-47.189c-23.594-4.719-37.751-18.876-42.47-37.751 0 0 0 0 0 0 0-9.437 0-14.157 0-23.594 4.719-23.594 18.876-37.751 37.751-42.47 0 0 0 0 0 0 9.437 0 14.157 0 23.594 0l221.787 42.47c14.157 0 28.313 0 37.751-4.719l217.069-108.534c4.719 0 4.719-4.719 4.719-4.719s0-4.719 0-9.437c-4.719-4.719-9.437-4.719-14.157-4.719l-207.631 42.47c-4.719 0-14.157 0-23.594 0-23.594-4.719-42.47-18.876-47.189-42.47-4.719-33.033 14.157-56.627 42.47-61.346l212.35-42.47c4.719-4.719 14.157-4.719 18.876-4.719 0 0 0 0 4.719 0 0 0 0 0 0 0 37.751 0 66.064 14.157 94.377 47.189h4.719l231.226 42.47c14.157-4.719 28.313-9.437 33.033-23.594 4.719-4.719 4.719-14.157 0-23.594s-9.437-14.157-18.876-18.876l-353.917-117.973c-4.719 0-9.437 0-14.157 0l-453.013 99.097c-23.594 4.719-56.627-9.437-61.346-42.47-4.719-28.313 9.437-56.627 42.47-61.346l434.138-99.097c9.437-4.719 23.594-4.719 37.751-4.719s37.751 0 51.907 9.437l353.917 117.973c18.876 4.719 33.033 14.157 47.189 28.313 14.157 9.437 28.313 28.313 33.033 42.47 23.594 23.594 23.594 56.627 14.157 94.377zM422.341 655.631c89.659 0 155.723 66.064 155.723 155.723s-70.783 155.723-155.723 155.723c-89.659 0-155.723-66.064-155.723-155.723s66.064-155.723 155.723-155.723zM422.341 863.263c23.594 0 51.907-23.594 51.907-51.907s-28.313-51.907-51.907-51.907c-28.313 0-51.907 28.313-51.907 51.907s23.594 51.907 51.907 51.907zM733.787 419.687c70.783 0 132.129 56.627 132.129 132.129 0 70.783-56.627 132.129-132.129 132.129-70.783 0-132.129-56.627-132.129-132.129 0-70.783 56.627-132.129 132.129-132.129zM733.787 580.129c14.157 0 23.594-9.437 23.594-28.313s-9.437-28.313-23.594-28.313c-14.157 0-28.313 9.437-28.313 28.313s9.437 28.313 28.313 28.313z" />
<glyph unicode="&#xe94a;" glyph-name="more" d="M204.8 448c0-56.554-45.847-102.4-102.4-102.4s-102.4 45.847-102.4 102.4c0 56.554 45.847 102.4 102.4 102.4s102.4-45.847 102.4-102.4zM614.4 448c0-56.554-45.847-102.4-102.4-102.4s-102.4 45.847-102.4 102.4c0 56.554 45.847 102.4 102.4 102.4s102.4-45.847 102.4-102.4zM1023.999 448c0-56.554-45.847-102.4-102.4-102.4s-102.4 45.847-102.4 102.4c0 56.554 45.847 102.4 102.4 102.4s102.4-45.847 102.4-102.4z" />
<glyph unicode="&#xe94b;" glyph-name="no_date" d="M367.709 150.109c9.309-9.309 27.927-13.964 37.236-13.964s23.272 4.655 37.236 13.964l69.818 69.818 69.818-69.818c9.309-9.309 27.927-13.964 37.236-13.964 13.964 0 27.927 4.655 37.236 13.964 18.619 18.619 18.619 51.2 0 69.818l-69.818 69.818 69.818 69.818c18.619 18.619 18.619 51.2 0 69.818s-51.2 18.619-69.818 0l-74.473-65.163-69.818 69.818c-18.619 18.619-51.2 18.619-69.818 0s-18.619-51.2 0-69.818l69.818-69.818-69.818-69.818c-23.272-23.272-23.272-51.2-4.655-74.473zM819.2 908.8h-51.2c0 27.927-23.272 51.2-51.2 51.2-23.272 0-51.2-23.272-51.2-51.2h-307.2c0 27.927-27.927 51.2-51.2 51.2s-51.2-23.272-51.2-51.2h-51.2c-111.709 0-204.8-93.091-204.8-204.8v-563.201c0-111.709 93.091-204.8 204.8-204.8h614.4c111.709 0 204.8 93.091 204.8 204.8v563.201c0 111.709-93.091 204.8-204.8 204.8zM921.601 140.8c0-55.855-46.546-102.4-102.4-102.4h-614.4c-55.855 0-102.4 46.546-102.4 102.4v423.564h819.2v-423.564zM921.601 666.763h-819.2v37.236c0 55.855 46.546 102.4 102.4 102.4h51.2c0-23.272 27.927-51.2 51.2-51.2s51.2 27.927 51.2 51.2h307.2c0-23.272 27.927-51.2 51.2-51.2 27.927 0 51.2 27.927 51.2 51.2h51.2c55.855 0 102.4-46.546 102.4-102.4v-37.236z" />
<glyph unicode="&#xe94c;" glyph-name="padlock" d="M902.982 480.582c-27.927 55.855-74.473 102.4-134.981 116.364v107.054c0 144.291-111.709 256-256 256s-256-111.709-256-256v-107.054c-88.437-27.927-153.6-102.4-153.6-200.146v-51.2c0-223.418 186.182-409.6 409.6-409.6s409.6 186.182 409.6 409.6v51.2c0 32.582-4.655 60.509-18.619 83.782zM358.4 704c0 88.437 65.163 153.6 153.6 153.6s153.6-65.163 153.6-153.6v-102.4h-307.2v102.4zM819.2 345.6c0-167.564-139.636-307.2-307.2-307.2s-307.2 139.636-307.2 307.2v51.2c0 55.855 46.546 102.4 102.4 102.4h409.6c55.855 0 102.4-46.546 102.4-102.4v-51.2zM563.2 294.4c0-28.277-22.923-51.2-51.2-51.2s-51.2 22.923-51.2 51.2c0 28.277 22.923 51.2 51.2 51.2s51.2-22.923 51.2-51.2z" />
<glyph unicode="&#xe94d;" glyph-name="play" d="M861.187 587.675l-498.172 344.53c-55.87 32.591-125.707 37.246-176.921 9.311-55.87-32.591-93.116-88.461-93.116-148.986v-689.062c0-60.526 32.591-116.396 88.461-148.986 23.279-13.967 51.214-18.624 79.149-18.624 32.591 0 65.181 9.311 93.116 27.935l502.829 344.53c46.559 32.591 74.493 83.805 74.493 139.675s-23.279 107.084-69.837 139.675zM796.005 401.441l-502.829-344.53c-27.935-18.624-51.214-4.656-55.87-4.656-9.311 4.656-32.591 18.624-32.591 51.214v689.062c0 27.935 23.279 46.559 27.935 51.214 4.656 0 18.624 4.656 27.935 4.656s23.279 0 32.591-9.311l498.172-344.53c18.624-9.311 23.279-27.935 23.279-46.559 4.656-18.624-4.656-32.591-18.624-46.559z" />
<glyph unicode="&#xe94e;" glyph-name="portrait" d="M255.999 38.399h-153.6v153.6c0 23.272-23.272 51.2-51.2 51.2s-51.2-27.927-51.2-51.2v-204.8c0-27.927 23.272-51.2 51.2-51.2h204.8c27.927 0 51.2 23.272 51.2 51.2 0 23.272-23.272 51.2-51.2 51.2zM51.2 652.8c27.927 0 51.2 23.272 51.2 51.2v153.6h153.6c27.927 0 51.2 23.272 51.2 51.2s-23.272 51.2-51.2 51.2h-204.8c-27.927 0-51.2-23.272-51.2-51.2v-204.8c0-27.927 23.272-51.2 51.2-51.2zM972.8 243.2c-23.272 0-51.2-27.927-51.2-51.2v-153.6h-153.6c-23.272 0-51.2-27.927-51.2-51.2 0-27.927 27.927-51.2 51.2-51.2h204.8c27.927 0 51.2 23.272 51.2 51.2v204.8c0 23.272-23.272 51.2-51.2 51.2zM716.8 652.8c0 55.855-46.546 102.4-102.4 102.4h-204.8c-55.855 0-102.4-46.546-102.4-102.4v-409.601c0-55.855 46.546-102.4 102.4-102.4h204.8c55.855 0 102.4 46.546 102.4 102.4v409.601zM614.4 243.2h-204.8v409.601h204.8v-409.601zM972.8 960h-204.8c-23.272 0-51.2-23.272-51.2-51.2s27.927-51.2 51.2-51.2h153.6v-153.6c0-27.927 27.927-51.2 51.2-51.2 27.927 0 51.2 23.272 51.2 51.2v204.8c0 27.927-23.272 51.2-51.2 51.2z" />
<glyph unicode="&#xe94f;" glyph-name="publish" d="M819.2 908.8c0 29.867-21.333 51.2-51.2 51.2s-51.2-21.333-51.2-51.2h-409.6c0 29.867-21.333 51.2-51.2 51.2s-51.2-21.333-51.2-51.2c-110.933 0-204.8-89.6-204.8-204.8v-563.2c0-110.933 93.867-204.8 204.8-204.8h358.4c110.933 0 204.8 93.867 204.8 204.8v51.2h51.2c110.933 0 204.8 93.867 204.8 204.8v307.2c0 115.2-93.867 204.8-204.8 204.8zM921.6 396.8c0-55.467-46.933-102.4-102.4-102.4h-102.4c-29.867 0-51.2-21.333-51.2-51.2v-102.4c0-55.467-46.933-102.4-102.4-102.4h-358.4c-55.467 0-102.4 46.933-102.4 102.4v409.6h819.2v-153.6zM102.4 704c0 55.467 46.933 102.4 102.4 102.4 0-29.867 21.333-51.2 51.2-51.2s51.2 21.333 51.2 51.2h409.6c0-29.867 21.333-51.2 51.2-51.2s51.2 21.333 51.2 51.2c55.467 0 102.4-46.933 102.4-102.4v-51.2h-819.2v51.2zM256 345.6h153.6c29.867 0 51.2 21.333 51.2 51.2s-21.333 51.2-51.2 51.2h-153.6c-29.867 0-51.2-21.333-51.2-51.2s21.333-51.2 51.2-51.2z" />
<glyph unicode="&#xe950;" d="M51.2 601.6v-482.133c0-72.533 59.733-132.267 132.267-132.267h396.8c72.533 0 132.267 59.733 132.267 132.267v123.733h123.733c72.533 0 132.267 59.733 132.267 132.267v226.133h-917.333z" />
<glyph unicode="&#xe951;" d="M819.2 294.4h-102.4c-29.867 0-51.2-21.333-51.2-51.2v-102.4c0-55.467-46.933-102.4-102.4-102.4h-358.4c-55.467 0-102.4 46.933-102.4 102.4v409.6h819.2v-153.6c0-55.467-46.933-102.4-102.4-102.4v0zM204.8 806.4c0-29.867 21.333-51.2 51.2-51.2s51.2 21.333 51.2 51.2h409.6c0-29.867 21.333-51.2 51.2-51.2s51.2 21.333 51.2 51.2c55.467 0 102.4-46.933 102.4-102.4v-51.2h-819.2v51.2c0 55.467 46.933 102.4 102.4 102.4v0zM819.2 908.8c0 29.867-21.333 51.2-51.2 51.2s-51.2-21.333-51.2-51.2h-409.6c0 29.867-21.333 51.2-51.2 51.2s-51.2-21.333-51.2-51.2c-110.933 0-204.8-93.867-204.8-204.8v-563.2c0-110.933 93.867-204.8 204.8-204.8h358.4c110.933 0 204.8 93.867 204.8 204.8v51.2h51.2c110.933 0 204.8 93.867 204.8 204.8v307.2c0 110.933-93.867 204.8-204.8 204.8v0z" />
<glyph unicode="&#xe952;" d="M409.6 448h-153.6c-29.867 0-51.2-21.333-51.2-51.2s21.333-51.2 51.2-51.2h153.6c29.867 0 51.2 21.333 51.2 51.2s-21.333 51.2-51.2 51.2v0z" />
<glyph unicode="&#xe953;" glyph-name="rectangle" d="M51.2 652.8c27.927 0 51.2 23.272 51.2 51.2v153.6h153.6c27.927 0 51.2 23.272 51.2 51.2s-23.272 51.2-51.2 51.2h-204.8c-27.927 0-51.2-23.272-51.2-51.2v-204.8c0-27.927 23.272-51.2 51.2-51.2zM255.999 38.399h-153.6v153.6c0 23.272-23.272 51.2-51.2 51.2s-51.2-27.927-51.2-51.2v-204.8c0-27.927 23.272-51.2 51.2-51.2h204.8c27.927 0 51.2 23.272 51.2 51.2 0 23.272-23.272 51.2-51.2 51.2zM819.2 243.2v409.601c0 55.855-46.546 102.4-102.4 102.4h-409.601c-55.855 0-102.4-46.546-102.4-102.4v-409.601c0-55.855 46.546-102.4 102.4-102.4h409.601c55.855 0 102.4 46.546 102.4 102.4zM307.2 652.8h409.601v-409.601h-409.601v409.601zM972.8 960h-204.8c-23.272 0-51.2-23.272-51.2-51.2s27.927-51.2 51.2-51.2h153.6v-153.6c0-27.927 27.927-51.2 51.2-51.2 27.927 0 51.2 23.272 51.2 51.2v204.8c0 27.927-23.272 51.2-51.2 51.2zM972.8 243.2c-23.272 0-51.2-27.927-51.2-51.2v-153.6h-153.6c-23.272 0-51.2-27.927-51.2-51.2 0-27.927 27.927-51.2 51.2-51.2h204.8c27.927 0 51.2 23.272 51.2 51.2v204.8c0 23.272-23.272 51.2-51.2 51.2z" />
<glyph unicode="&#xe954;" glyph-name="remove" d="M678.805 378.498v0l-69.502 69.502 393.846 393.846c27.801 27.801 27.801 69.502 0 97.303s-69.502 27.801-97.303 0l-393.846-393.846-393.846 393.846c-27.801 23.167-69.502 23.167-97.303 0-23.167-27.801-23.167-69.502 0-97.303l393.846-393.846-393.846-393.846c-27.801-27.801-27.801-69.502 0-97.303s69.502-27.801 97.303 0l393.846 393.846 393.846-393.846c27.801-27.801 69.502-27.801 97.303 0s27.801 69.502 0 97.303l-324.344 324.344z" />
<glyph unicode="&#xe955;" glyph-name="save_search" d="M572.509 587.636l-60.509 121.018-60.509-121.018-139.636-23.272 97.745-97.745-18.619-134.981 121.018 60.509 121.018-60.509-18.619 134.981 102.4 97.745zM716.8 959.999h-409.6c-111.709 0-204.8-93.091-204.8-204.8v-768c0-13.964 9.309-37.236 23.272-41.891 13.964-9.309 32.582-9.309 46.546-4.655l339.782 144.291 339.782-144.291c4.655 0 13.964-4.655 18.619-4.655 9.309 0 18.619 4.655 23.272 9.309 13.964 9.309 23.272 27.927 23.272 41.891v768c4.655 111.709-88.437 204.8-200.146 204.8zM819.2 66.327l-288.581 121.018c-4.655 4.655-13.964 4.655-18.619 4.655s-13.964 0-18.619-4.655l-288.581-121.018v688.873c0 55.855 46.546 102.4 102.4 102.4h409.6c55.855 0 102.4-46.546 102.4-102.4v-688.873z" />
<glyph unicode="&#xe956;" glyph-name="search" d="M409.664 448c-55.819 0-102.336 46.517-102.336 102.336 0 27.91-27.91 51.167-51.167 51.167s-51.167-23.258-51.167-51.167c0-111.639 93.032-204.671 204.671-204.671 23.258 0 51.167 27.91 51.167 51.167s-23.258 51.167-51.167 51.167zM409.664 959.678c-223.278 0-409.343-186.065-409.343-409.343s186.065-409.343 409.343-409.343 409.343 186.065 409.343 409.343c0 223.278-186.065 409.343-409.343 409.343zM409.664 243.329c-167.458 0-307.007 139.549-307.007 307.007s139.549 307.007 307.007 307.007 307.007-139.549 307.007-307.007-139.549-307.007-307.007-307.007zM1009.723 24.702l-204.671 204.671c-18.607 18.607-51.167 18.607-69.774 0s-18.607-51.167 0-69.774l204.671-204.671c9.303-9.303 23.258-13.955 37.213-13.955 9.303 0 23.258 4.652 37.213 13.955 13.955 18.607 13.955 46.517-4.652 69.774z" />
<glyph unicode="&#xe957;" glyph-name="send" d="M998.282 934.282c-4.676 4.676-4.676 9.351-9.351 14.027 0 0 0 0-4.676 4.676-4.676 0-4.676 4.676-9.351 4.676s-9.351 0-14.027 0h-4.676c-4.676 0-9.351 0-9.351-4.676h-4.676l-855.67-467.58c-37.406-18.704-56.11-60.786-56.11-102.868 4.676-42.082 32.731-79.488 65.461-93.516l205.735-74.813 9.351-182.356c0-42.082 32.731-84.164 65.461-93.516 14.027-4.676 28.055-4.676 37.406-4.676 32.731 0 56.11 9.351 79.488 37.406l126.246 130.923 140.274-51.433c9.351-4.676 28.055-4.676 37.406-4.676 18.704 0 42.082 4.676 56.11 14.027 28.055 14.027 46.758 46.758 51.433 79.488l98.192 776.182v4.676c0 4.676 0 9.351-4.676 14.027zM338.995 312.402l-205.735 79.488-4.676 4.676 575.123 322.63-364.712-406.794zM423.16 36.53h-9.351l-4.676 135.598 102.868-42.082-88.84-93.516zM801.899 139.398l51.433-4.676-56.11 4.676-173.005 60.786-182.356 65.461 434.849 486.282-74.813-612.529z" />
<glyph unicode="&#xe958;" glyph-name="img_broken" d="M777.649 824.336c68.115 0 122.607-54.492 122.607-122.607v-467.725l77.197-77.197c4.541 13.623 4.541 31.787 4.541 49.951v494.971c0 113.526-90.82 204.346-204.346 204.346h-494.971c-18.164 4.541-31.787 0-49.951-4.541l77.197-77.197h467.725zM732.239 402.022l-131.689 258.838-40.869-81.738zM1013.782-2.128l-949.073 949.073c-13.623 13.623-40.869 13.623-54.492 0s-13.623-40.869 0-54.492l90.82-90.82c-13.623-31.787-22.705-63.574-22.705-99.903v-494.971c0-113.526 90.82-204.346 204.346-204.346h494.971c36.328 0 68.115 9.082 99.903 27.246l81.738-81.738c9.082-9.082 18.164-9.082 27.246-9.082s18.164 4.541 27.246 9.082c13.623 13.623 13.623 36.328 0 49.951zM777.649 84.15h-494.971c-68.115 0-122.607 54.492-122.607 122.607v494.971c0 13.623 0 27.246 4.541 36.328l313.33-313.33-18.164-31.787-54.492 81.738-158.935-227.050h408.692l158.935-158.935c-9.082-4.541-22.705-4.541-36.328-4.541z" />
<glyph unicode="&#xe959;" glyph-name="settings" d="M309.045 245.045h-258.306c-27.676 0-50.738-27.676-50.738-50.738s27.676-50.738 50.738-50.738h258.306c27.676 0 50.738 27.676 50.738 50.738s-27.676 50.738-50.738 50.738zM714.955 650.955h258.306c27.676 0 50.738 27.676 50.738 50.738s-23.063 55.351-50.738 55.351h-258.306c-27.676 0-50.738-27.676-50.738-50.738s27.676-55.351 50.738-55.351zM562.738 706.306c0 110.703-92.252 202.955-202.955 202.955-96.865 0-175.279-64.576-202.955-152.216h-106.090c-27.676 0-50.738-27.676-50.738-50.738s23.063-55.351 50.738-55.351h106.090c27.676-87.64 101.478-152.216 198.343-152.216 115.316 0 207.568 92.252 207.568 207.568zM359.784 600.216c-55.351 0-101.478 46.127-101.478 101.478s46.127 101.478 101.478 101.478 101.478-46.127 101.478-101.478c0-55.351-46.127-101.478-101.478-101.478zM973.262 245.045h-106.090c-27.676 87.64-101.478 152.216-198.343 152.216-110.703 0-202.955-92.252-202.955-202.955s92.252-202.955 202.955-202.955c96.865 0 175.279 64.576 198.343 152.216h106.090c27.676 0 50.738 27.676 50.738 50.738s-23.063 50.738-50.738 50.738zM664.216 88.216c-55.351 0-101.478 46.127-101.478 101.478s46.127 101.478 101.478 101.478 101.478-46.127 101.478-101.478c4.613-55.351-41.514-101.478-101.478-101.478z" />
<glyph unicode="&#xe95a;" glyph-name="square" d="M51.2 652.8c27.927 0 51.2 23.272 51.2 51.2v153.6h153.6c27.927 0 51.2 23.272 51.2 51.2s-23.272 51.2-51.2 51.2h-204.8c-27.927 0-51.2-23.272-51.2-51.2v-204.8c0-27.927 23.272-51.2 51.2-51.2zM255.999 38.399h-153.6v153.6c0 23.272-23.272 51.2-51.2 51.2s-51.2-27.927-51.2-51.2v-204.8c0-27.927 23.272-51.2 51.2-51.2h204.8c27.927 0 51.2 23.272 51.2 51.2 0 23.272-23.272 51.2-51.2 51.2zM819.2 243.2v409.601c0 55.855-46.546 102.4-102.4 102.4h-409.601c-55.855 0-102.4-46.546-102.4-102.4v-409.601c0-55.855 46.546-102.4 102.4-102.4h409.601c55.855 0 102.4 46.546 102.4 102.4zM307.2 652.8h409.601v-409.601h-409.601v409.601zM972.8 960h-204.8c-23.272 0-51.2-23.272-51.2-51.2s27.927-51.2 51.2-51.2h153.6v-153.6c0-27.927 27.927-51.2 51.2-51.2 27.927 0 51.2 23.272 51.2 51.2v204.8c0 27.927-23.272 51.2-51.2 51.2zM972.8 243.2c-23.272 0-51.2-27.927-51.2-51.2v-153.6h-153.6c-23.272 0-51.2-27.927-51.2-51.2 0-27.927 27.927-51.2 51.2-51.2h204.8c27.927 0 51.2 23.272 51.2 51.2v204.8c0 23.272-23.272 51.2-51.2 51.2z" />
<glyph unicode="&#xe95b;" glyph-name="new" d="M1023.999 448l-113.571 129.396 15.826 171.287-168.029 38.168-87.971 148.014-158.255-67.956-158.255 67.956-87.971-148.014-168.029-37.702 15.826-171.287-113.571-129.862 113.571-129.396-15.826-171.752 168.029-38.168 87.971-148.014 158.255 68.422 158.255-67.956 87.971 148.014 168.029 38.168-15.826 171.287 113.571 129.396zM558.546 215.273h-93.090v93.090h93.090v-93.090zM558.546 401.454h-93.090v279.272h93.090v-279.272z" />
<glyph unicode="&#xe95c;" glyph-name="star_empty" d="M1014.007 573.502c-13.447 40.34-44.822 67.233-85.162 71.716l-215.146 40.34-103.090 197.216c-22.411 35.857-53.786 58.269-98.609 58.269-40.34 0-80.68-22.411-103.090-58.269l-103.090-192.735-215.146-35.857c-40.34-13.447-71.716-40.34-85.162-80.68s-4.483-80.68 22.411-112.055l147.913-156.877-26.893-215.146c-4.483-40.34 13.447-80.68 44.822-107.573 17.929-13.447 40.34-17.929 62.75-22.411 17.929 0 40.34 0 58.269 8.964l197.216 94.126 197.216-94.126c17.929-4.483 35.857-13.447 49.304-13.447 0 0 4.483 0 4.483 0s0 0 0 0c22.411 0 44.822 4.483 67.233 22.411 35.857 22.411 49.304 62.75 44.822 107.573l-26.893 215.146 147.913 156.877c26.893 35.857 35.857 76.197 17.929 116.537zM628.537 613.842c4.483-17.929 22.411-22.411 40.34-26.893l237.556-44.822-170.323-179.288c-13.447-13.447-17.929-26.893-17.929-44.822l35.857-242.039-219.628 107.573c-17.929 4.483-35.857 4.483-49.304 0l-219.628-107.573 35.857 242.039c0 17.929-4.483 35.857-17.929 44.822l-170.323 174.806 237.556 44.822c17.929 4.483 26.893 13.447 40.34 26.893l121.019 219.628 116.537-215.146z" />
<glyph unicode="&#xe95d;" glyph-name="star_empty_no_select" d="M534.787 179.109c-18.23 4.558-36.459 4.558-50.132 0l-223.317-109.379 36.459 250.661c0 18.23-4.558 36.459-18.23 45.575l-168.627 177.741 95.707 18.23-95.707 95.707h-22.787c-36.459-9.115-72.92-36.459-82.035-77.477s-4.558-77.477 22.787-113.937l145.839-159.511-27.345-218.759c-4.558-41.017 13.672-86.592 45.575-109.379 18.23-13.672 41.017-18.23 63.804-22.787 18.23 0 41.017 0 59.248 9.115l195.972 95.707 195.972-95.707c18.23-4.558 31.903-13.672 50.132-13.672 0 0 0 0 4.558 0 0 0 0 0 4.558 0 18.23 0 27.345 4.558 45.575 13.672l-164.069 164.069-113.937 50.132zM1008.765 42.385l-150.397 145.839-18.23 123.052 150.397 159.511c27.345 27.345 41.017 72.92 27.345 113.937s-45.575 68.362-86.592 72.92l-218.759 41.017-100.265 191.414c-22.787 36.459-54.69 59.248-100.265 59.248-41.017 0-82.035-22.787-100.265-59.248l-86.592-164.069-173.184 173.184c-22.787 22.787-59.248 22.787-82.035 0s-22.787-59.248 0-82.035l856.805-856.805c13.672-13.672 27.345-18.23 41.017-18.23 18.23 0 27.345 4.558 41.017 18.23 22.787 27.345 22.787 59.248 0 82.035zM726.201 320.39l-319.024 319.024 104.822 195.972 118.494-214.201c4.558-18.23 22.787-22.787 41.017-27.345l241.546-45.575-173.184-177.741c-13.672-18.23-13.672-31.903-13.672-50.132z" />
<glyph unicode="&#xe95e;" glyph-name="star_full" d="M971.42 613.034l-267.623 49.064-133.811 240.861c-26.762 44.604-89.207 44.604-115.97 0l-133.811-240.861-267.623-49.064c-49.064-13.381-71.366-71.366-31.223-107.049l191.797-196.256-40.143-276.543c-4.461-49.064 44.604-84.748 89.207-62.445l249.781 115.97 254.242-115.97c44.604-26.762 93.668 13.381 89.207 62.445l-40.143 276.543 191.797 196.256c35.683 35.683 13.381 93.668-35.683 107.049z" />
<glyph unicode="&#xe95f;" glyph-name="table" d="M819.2 960h-614.4c-111.709 0-204.8-93.091-204.8-204.8v-614.4c0-111.709 93.091-204.8 204.8-204.8h614.4c111.709 0 204.8 93.091 204.8 204.8v614.4c0 111.709-93.091 204.8-204.8 204.8zM460.8 38.399h-256.001c-55.855 0-102.4 46.546-102.4 102.4v256.001h358.4v-358.4zM460.8 499.2h-358.4v256.001c0 55.855 46.546 102.4 102.4 102.4h256.001v-358.4zM921.601 140.8c0-55.855-46.546-102.4-102.4-102.4h-256.001v358.4h358.4v-256.001zM921.601 499.2h-358.4v358.4h256.001c55.855 0 102.4-46.546 102.4-102.4v-256.001z" />
<glyph unicode="&#xe960;" glyph-name="tag" d="M803.909 693.574c23.167 0 46.335 18.534 46.335 46.335 0 0 0 0 0 4.634 0 0 0 0 0 4.634 0 23.167-18.534 46.335-46.335 46.335s-46.335-18.534-46.335-46.335c0 0 0 0 0 0s0 0 0-4.634c0-32.435 18.534-50.968 46.335-50.968zM544.435 957.683l-13.9-9.267-495.782-505.050-32.435-32.435 477.249-477.249 32.435 32.435 505.050 495.782 9.267 13.9v481.882h-481.882zM933.647 512.868l-458.715-454.081-352.145 352.145 454.081 458.715h356.778v-356.778z" />
<glyph unicode="&#xe961;" glyph-name="tags" d="M871.538 962.275h-323.129c-45.511 0-91.022-22.755-122.88-50.062l-286.72-277.618c-50.062-50.062-50.062-136.533 0-191.147l9.102-9.102-9.102-9.102c-50.062-50.062-50.062-136.533 0-191.147l254.862-254.862c31.858-27.307 63.715-40.96 95.573-40.96 36.409 0 72.818 13.653 95.573 40.96l277.618 277.618c31.858 31.858 50.062 77.369 50.062 122.88v532.48c9.102 27.307-13.653 50.062-40.96 50.062zM216.178 557.227l277.618 277.618c13.653 13.653 31.858 22.755 50.062 22.755h273.067v-273.067c0-22.755-9.102-36.409-22.755-50.062l-277.618-277.618c-9.102-9.102-31.858-9.102-45.511 0l-254.862 254.862c-13.653 13.653-13.653 31.858 0 45.511zM830.578 384.285c-9.102-27.307-13.653-45.511-31.858-63.715l-277.618-277.618c-9.102-9.102-31.858-9.102-45.511 0l-254.862 254.862c-9.102 9.102-9.102 31.858 0 45.511l9.102 9.102 172.942-172.942c27.307-27.307 63.715-40.96 95.573-40.96s72.818 13.653 95.573 40.96l232.107 232.107v-27.307zM457.387 375.182c9.102-9.102 27.307-13.653 36.409-13.653 13.653 0 27.307 4.551 36.409 13.653 22.755 22.755 22.755 50.062 0 72.818l-122.88 122.88c-22.755 22.755-50.062 22.755-72.818 0s-22.755-50.062 0-72.818l122.88-122.88zM703.147 689.209c31.858 0 54.613 22.755 54.613 54.613s-22.755 54.613-54.613 54.613c-31.858 0-54.613-22.755-54.613-54.613s22.755-54.613 54.613-54.613z" />
<glyph unicode="&#xe962;" glyph-name="talk_rate" d="M879.708 587.636h-60.509v195.49c0 97.745-83.782 176.872-176.872 176.872h-460.799c-97.745 0-176.872-83.782-176.872-176.872v-637.671c0-18.618 9.309-37.236 32.582-46.546 4.655-4.655 9.309-4.655 18.618-4.655s18.618 4.655 32.582 9.309l195.49 158.254h125.672v-60.509c0-74.473 60.509-144.291 144.291-144.291h251.345l139.636-111.709c9.309-4.655 18.618-9.309 32.582-9.309 9.309 0 13.964 0 18.618 4.655 18.618 9.309 32.582 23.272 32.582 46.546v451.49c-9.309 88.436-69.818 148.945-148.945 148.945zM265.31 364.218c-9.309 0-23.272-4.655-32.582-9.309l-125.672-102.4v530.617c-4.655 37.236 32.582 74.473 74.473 74.473h460.799c41.891 0 74.473-37.236 74.473-74.473v-339.781c0-41.891-37.236-74.473-74.473-74.473h-377.017zM926.253 98.91h-4.655l-65.163 55.854c-9.309 4.655-18.618 9.309-32.582 9.309h-265.308c-18.618 0-41.891 13.964-41.891 41.891v60.509h125.672c97.745 0 176.872 83.782 176.872 176.872v41.891h65.163c18.618 0 41.891-18.618 41.891-41.891v-344.435zM307.201 601.6c0-28.277-22.923-51.2-51.2-51.2s-51.2 22.923-51.2 51.2c0 28.277 22.923 51.2 51.2 51.2s51.2-22.923 51.2-51.2zM460.8 601.6c0-28.277-22.923-51.2-51.2-51.2s-51.2 22.923-51.2 51.2c0 28.277 22.923 51.2 51.2 51.2s51.2-22.923 51.2-51.2zM614.4 601.6c0-28.277-22.923-51.2-51.2-51.2s-51.2 22.923-51.2 51.2c0 28.277 22.923 51.2 51.2 51.2s51.2-22.923 51.2-51.2z" />
<glyph unicode="&#xe963;" glyph-name="tools" d="M819.2 755.2h-51.2v51.2c0 85.333-68.267 153.6-153.6 153.6h-204.8c-85.333 0-153.6-68.267-153.6-153.6v-51.2h-51.2c-110.933 0-204.8-93.867-204.8-204.8v-409.6c0-110.933 93.867-204.8 204.8-204.8h614.4c110.933 0 204.8 93.867 204.8 204.8v409.6c0 110.933-93.867 204.8-204.8 204.8zM102.4 140.8v153.6h153.6v-51.2c0-29.867 21.333-51.2 51.2-51.2s51.2 21.333 51.2 51.2v51.2h307.2v-51.2c0-29.867 21.333-51.2 51.2-51.2s51.2 21.333 51.2 51.2v51.2h153.6v-153.6c0-55.467-46.933-102.4-102.4-102.4h-614.4c-55.467 0-102.4 46.933-102.4 102.4zM921.6 396.8h-153.6v51.2c0 29.867-21.333 51.2-51.2 51.2s-51.2-21.333-51.2-51.2v-51.2h-307.2v51.2c0 29.867-21.333 51.2-51.2 51.2s-51.2-21.333-51.2-51.2v-51.2h-153.6v153.6c0 55.467 46.933 102.4 102.4 102.4h614.4c55.467 0 102.4-46.933 102.4-102.4v-153.6zM358.4 806.4c0 29.867 21.333 51.2 51.2 51.2h204.8c29.867 0 51.2-21.333 51.2-51.2v-51.2h-307.2v51.2z" />
<glyph unicode="&#xe964;" d="M819.2-12.8h-614.4c-85.333 0-153.6 68.267-153.6 153.6v409.6c0 85.333 68.267 153.6 153.6 153.6h614.4c85.333 0 153.6-68.267 153.6-153.6v-409.6c0-85.333-68.267-153.6-153.6-153.6z" />
<glyph unicode="&#xe965;" d="M819.2 38.4h-614.4c-55.467 0-102.4 46.933-102.4 102.4v153.6h153.6v-51.2c0-29.867 21.333-51.2 51.2-51.2s51.2 21.333 51.2 51.2v51.2h307.2v-51.2c0-29.867 21.333-51.2 51.2-51.2s51.2 21.333 51.2 51.2v51.2h153.6v-153.6c0-55.467-46.933-102.4-102.4-102.4zM204.8 652.8h614.4c55.467 0 102.4-46.933 102.4-102.4v-153.6h-153.6v51.2c0 29.867-21.333 51.2-51.2 51.2s-51.2-21.333-51.2-51.2v-51.2h-307.2v51.2c0 29.867-21.333 51.2-51.2 51.2s-51.2-21.333-51.2-51.2v-51.2h-153.6v153.6c0 55.467 46.933 102.4 102.4 102.4zM358.4 806.4c0 29.867 21.333 51.2 51.2 51.2h204.8c29.867 0 51.2-21.333 51.2-51.2v-51.2h-307.2v51.2zM819.2 755.2h-51.2v51.2c0 85.333-68.267 153.6-153.6 153.6h-204.8c-85.333 0-153.6-68.267-153.6-153.6v-51.2h-51.2c-110.933 0-204.8-93.867-204.8-204.8v-409.6c0-110.933 93.867-204.8 204.8-204.8h614.4c110.933 0 204.8 93.867 204.8 204.8v409.6c0 110.933-93.867 204.8-204.8 204.8z" />
<glyph unicode="&#xe966;" glyph-name="upload_cloud" d="M549.236 536.437c-4.655 4.655-9.309 9.309-13.964 9.309-9.309 4.655-13.964 4.655-23.272 4.655s-13.964 0-18.619-4.655c-4.655 0-9.309-4.655-13.964-9.309l-153.6-153.6c-18.619-18.619-18.619-51.2 0-69.818s51.2-18.619 69.818 0l65.163 65.163v-339.782c0-27.927 27.927-51.2 51.2-51.2s51.2 23.272 51.2 51.2v339.782l65.163-65.163c9.309-9.309 18.619-13.964 37.236-13.964s27.927 4.655 37.236 13.964c18.619 18.619 18.619 51.2 0 69.818l-153.6 153.6zM819.2 601.6c0 167.564-139.636 307.2-307.2 307.2s-307.2-139.636-307.2-307.2c-111.709-9.309-204.8-111.709-204.8-228.073 0-130.328 102.4-232.727 228.073-232.727 27.927 0 51.2 27.927 51.2 51.2s-27.927 51.2-51.2 51.2c-69.818 0-125.673 55.855-125.673 130.328s55.855 130.328 125.673 130.328c9.309 0 13.964 0 18.619 0s9.309 0 13.964 0c13.964 0 23.272 4.655 32.582 18.619 13.964 9.309 18.619 32.582 13.964 46.546 0 9.309 0 18.619 0 32.582 0 111.709 93.091 204.8 204.8 204.8s204.8-93.091 204.8-204.8c0-13.964 0-27.927-4.655-41.891s0-37.236 13.964-46.546c9.309-13.964 18.619-18.619 32.582-18.619 4.655 0 9.309 0 13.964 0s13.964 0 18.619 0c69.818 0 130.328-55.855 130.328-130.328s-55.855-130.328-130.328-130.328c-23.272 0-51.2-27.927-51.2-51.2s23.272-51.2 51.2-51.2c130.328 0 232.727 102.4 232.727 232.727 0 125.673-93.091 223.418-204.8 237.382z" />
<glyph unicode="&#xe967;" glyph-name="user" d="M512 960c-283.928 0-512-228.073-512-512s228.073-512 512-512 512 232.727 512 512-232.727 512-512 512zM716.8 94.254c-60.509-37.236-130.328-55.855-204.8-55.855s-144.291 18.619-204.8 55.855v46.546c0 60.509 23.272 116.364 69.818 153.6 37.236-32.582 83.782-51.2 134.982-51.2s97.746 18.619 134.982 51.2c41.891-37.236 69.818-93.091 69.818-153.6v-46.546zM409.6 448v102.4c0 55.855 46.546 102.4 102.4 102.4s102.4-46.546 102.4-102.4v-102.4c0-55.855-46.546-102.4-102.4-102.4s-102.4 46.546-102.4 102.4zM819.2 178.036c-9.309 83.782-51.2 153.6-111.709 204.8 9.309 18.619 9.309 46.546 9.309 65.163v102.4c0 111.709-93.091 204.8-204.8 204.8s-204.8-93.091-204.8-204.8v-102.4c0-27.927 4.655-46.546 9.309-65.163-60.509-51.2-102.4-121.018-111.709-204.8-60.509 69.818-102.4 167.564-102.4 269.964 0 223.418 186.182 409.601 409.601 409.601s409.601-186.182 409.601-409.601c0-102.4-41.891-200.146-102.4-269.964z" />
<glyph unicode="&#xe968;" glyph-name="notification" d="M936.48 146.052l-65.641 113.777c-26.256 43.761-43.761 96.274-43.761 148.787v96.274c0 126.906-78.769 245.059-196.923 293.196v43.761c0 65.641-52.513 118.154-118.154 118.154s-118.154-52.513-118.154-118.154v-43.761c-118.154-48.136-196.923-166.29-196.923-293.196v-96.274c0-52.513-13.128-105.026-43.761-148.787l-65.641-113.777c-13.128-17.505-13.128-43.761 0-61.265 8.752-17.505 30.633-30.633 52.513-30.633h743.929c21.88 0 43.761 13.128 52.513 30.633 13.128 17.505 13.128 43.761 0 61.265zM179.422 137.3l48.136 78.769c35.008 56.889 52.513 126.906 52.513 192.546v96.274c0 100.649 70.017 192.546 166.29 223.179l30.633 8.752v105.026c0 21.88 17.505 39.385 39.385 39.385s35.008-17.505 35.008-39.385v-100.649l30.633-8.752c96.274-30.633 166.29-122.53 166.29-223.179v-96.274c0-70.017 17.505-135.658 52.513-192.546l48.136-78.769h-669.536zM512.002-63.999c52.513 0 100.649 30.633 122.53 78.769h-245.059c21.88-48.136 70.017-78.769 122.53-78.769z" />
<glyph unicode="&#xe969;" glyph-name="view_eye" d="M614.683 448c-56.009 0-102.683 46.674-102.683 107.35 0 42.007 28.004 79.345 60.677 93.348-18.67 4.668-42.007 9.334-60.677 9.334-112.018 0-205.365-93.348-205.365-205.365s93.348-205.365 205.365-205.365 205.365 93.348 205.365 205.365c0 18.67-4.668 42.007-9.334 60.677-14.002-37.339-51.341-65.343-93.348-65.343zM1016.080 476.004c-163.359 256.708-345.387 382.727-527.416 368.725-289.379-9.334-476.075-354.723-485.41-368.725 0-4.668 0-4.668 0-9.334s0-9.334 0-14.002c0 0 0 0 0 0 0-9.334 0-18.67 4.668-23.337 9.334-14.002 196.031-364.057 490.077-378.060 4.668 0 9.334 0 14.002 0 182.029 0 350.055 121.352 508.747 378.060 9.334 9.334 9.334 32.672-4.668 46.674zM497.998 149.286c-196.031 9.334-345.387 228.703-387.394 298.714 42.007 70.011 191.363 289.379 387.394 298.714 140.022 4.668 280.044-93.348 415.398-298.714-140.022-205.365-275.376-303.381-415.398-298.714z" />
<glyph unicode="&#xe96a;" glyph-name="view_file" d="M386.327 43.055h-153.6c-55.855 0-102.4 46.546-102.4 102.4v456.145h204.8c23.272 0 51.2 23.272 51.2 51.2v204.8h358.399c55.855 0 102.4-46.546 102.4-102.4v-153.6c0-23.272 23.272-51.2 51.2-51.2s51.2 23.272 51.2 51.2v153.6c0 111.709-93.090 204.8-204.8 204.8h-358.399c-55.855 0-102.4-46.546-102.4-102.4v-153.6h-153.6c-55.855 0-102.4-46.546-102.4-102.4v-460.8c0-111.709 93.090-204.8 204.8-204.8h153.6c23.272 0 51.2 23.272 51.2 51.2s-27.927 55.855-51.2 55.855zM982.108 29.091l-176.872 176.872c0 0 0 0-4.655 0 32.582 41.891 46.546 93.090 46.546 144.291 0 144.291-111.709 256-256 256s-256-111.709-256-256c0-144.291 111.709-256 256-256 51.2 0 102.4 13.964 144.291 41.891 0 0 0 0 0-4.655l176.872-176.872c9.309-9.309 23.272-13.964 37.236-13.964 9.309 0 23.272 4.655 37.236 13.964 13.964 23.272 13.964 51.2-4.655 74.473zM586.473 196.655c-88.437 0-153.6 65.163-153.6 153.6s65.163 153.6 153.6 153.6 153.6-65.163 153.6-153.6c0-88.437-65.163-153.6-153.6-153.6z" />
</font>
</defs>
</svg>
